<svg xmlns="http://www.w3.org/2000/svg" viewBox="0 0 512 512" width="512" height="512" role="img" aria-label="CUPIDS Lab">
<metadata>CUPIDS Lab — generated from _data/brand.yml. A brand and graphic identity for an academic public interest data lab. A black terminal with monospace fonts and syntax initially feels intimidating and cold. A near-black canvas, CU gold accents, an IBM Plex Mono "cupids-lab" wordmark. The recurring Cupid idiom is a "heart with arrow" drawn as 8-bit pixel art — a retro, terminal / coding-agent nod rather than the proprietary emoji. The Unicode "color heart" palette still provides variation in the decorative art, and the ASCII heart "&lt;3" lives on as playful microcopy. Restrained and civic with a little matchmaker playfulness.</metadata>
<rect width="512" height="512" rx="96" fill="#0e0f12"/>
<rect x="14" y="14" width="484" height="484" rx="84" fill="none" stroke="#16181d" stroke-width="2"/>
<g shape-rendering="crispEdges">
<rect x="155.36" y="55.92" width="12.31" height="12.31" fill="#f06fa0"/>
<rect x="167.2" y="55.92" width="12.31" height="12.31" fill="#f06fa0"/>
<rect x="179.04" y="55.92" width="12.31" height="12.31" fill="#f06fa0"/>
<rect x="190.88" y="55.92" width="12.31" height="12.31" fill="#f06fa0"/>
<rect x="202.72" y="55.92" width="12.31" height="12.31" fill="#f06fa0"/>
<rect x="214.56" y="55.92" width="12.31" height="12.31" fill="#f06fa0"/>
<rect x="273.76" y="55.92" width="12.31" height="12.31" fill="#f06fa0"/>
<rect x="285.6" y="55.92" width="12.31" height="12.31" fill="#f06fa0"/>
<rect x="297.44" y="55.92" width="12.31" height="12.31" fill="#f06fa0"/>
<rect x="309.28" y="55.92" width="12.31" height="12.31" fill="#f06fa0"/>
<rect x="321.12" y="55.92" width="12.31" height="12.31" fill="#f06fa0"/>
<rect x="332.96" y="55.92" width="12.31" height="12.31" fill="#f06fa0"/>
<rect x="131.68" y="67.76" width="12.31" height="12.31" fill="#f06fa0"/>
<rect x="143.52" y="67.76" width="12.31" height="12.31" fill="#f06fa0"/>
<rect x="155.36" y="67.76" width="12.31" height="12.31" fill="#f06fa0"/>
<rect x="167.2" y="67.76" width="12.31" height="12.31" fill="#f06fa0"/>
<rect x="179.04" y="67.76" width="12.31" height="12.31" fill="#f06fa0"/>
<rect x="190.88" y="67.76" width="12.31" height="12.31" fill="#f06fa0"/>
<rect x="202.72" y="67.76" width="12.31" height="12.31" fill="#f06fa0"/>
<rect x="214.56" y="67.76" width="12.31" height="12.31" fill="#f06fa0"/>
<rect x="226.4" y="67.76" width="12.31" height="12.31" fill="#f06fa0"/>
<rect x="261.92" y="67.76" width="12.31" height="12.31" fill="#f06fa0"/>
<rect x="273.76" y="67.76" width="12.31" height="12.31" fill="#f06fa0"/>
<rect x="285.6" y="67.76" width="12.31" height="12.31" fill="#f06fa0"/>
<rect x="297.44" y="67.76" width="12.31" height="12.31" fill="#f06fa0"/>
<rect x="309.28" y="67.76" width="12.31" height="12.31" fill="#f06fa0"/>
<rect x="321.12" y="67.76" width="12.31" height="12.31" fill="#f06fa0"/>
<rect x="332.96" y="67.76" width="12.31" height="12.31" fill="#f06fa0"/>
<rect x="344.8" y="67.76" width="12.31" height="12.31" fill="#f06fa0"/>
<rect x="356.64" y="67.76" width="12.31" height="12.31" fill="#f06fa0"/>
<rect x="131.68" y="79.6" width="12.31" height="12.31" fill="#f06fa0"/>
<rect x="143.52" y="79.6" width="12.31" height="12.31" fill="#f06fa0"/>
<rect x="155.36" y="79.6" width="12.31" height="12.31" fill="#f06fa0"/>
<rect x="167.2" y="79.6" width="12.31" height="12.31" fill="#f06fa0"/>
<rect x="179.04" y="79.6" width="12.31" height="12.31" fill="#f06fa0"/>
<rect x="190.88" y="79.6" width="12.31" height="12.31" fill="#f06fa0"/>
<rect x="202.72" y="79.6" width="12.31" height="12.31" fill="#f06fa0"/>
<rect x="214.56" y="79.6" width="12.31" height="12.31" fill="#f06fa0"/>
<rect x="226.4" y="79.6" width="12.31" height="12.31" fill="#f06fa0"/>
<rect x="238.24" y="79.6" width="12.31" height="12.31" fill="#f06fa0"/>
<rect x="250.08" y="79.6" width="12.31" height="12.31" fill="#f06fa0"/>
<rect x="261.92" y="79.6" width="12.31" height="12.31" fill="#f06fa0"/>
<rect x="273.76" y="79.6" width="12.31" height="12.31" fill="#f06fa0"/>
<rect x="285.6" y="79.6" width="12.31" height="12.31" fill="#f06fa0"/>
<rect x="297.44" y="79.6" width="12.31" height="12.31" fill="#f06fa0"/>
<rect x="309.28" y="79.6" width="12.31" height="12.31" fill="#f06fa0"/>
<rect x="321.12" y="79.6" width="12.31" height="12.31" fill="#f06fa0"/>
<rect x="332.96" y="79.6" width="12.31" height="12.31" fill="#f06fa0"/>
<rect x="344.8" y="79.6" width="12.31" height="12.31" fill="#f06fa0"/>
<rect x="356.64" y="79.6" width="12.31" height="12.31" fill="#c44f86"/>
<rect x="119.84" y="91.44" width="12.31" height="12.31" fill="#f06fa0"/>
<rect x="131.68" y="91.44" width="12.31" height="12.31" fill="#f06fa0"/>
<rect x="143.52" y="91.44" width="12.31" height="12.31" fill="#f06fa0"/>
<rect x="155.36" y="91.44" width="12.31" height="12.31" fill="#f06fa0"/>
<rect x="167.2" y="91.44" width="12.31" height="12.31" fill="#f06fa0"/>
<rect x="179.04" y="91.44" width="12.31" height="12.31" fill="#f06fa0"/>
<rect x="190.88" y="91.44" width="12.31" height="12.31" fill="#f06fa0"/>
<rect x="202.72" y="91.44" width="12.31" height="12.31" fill="#f06fa0"/>
<rect x="214.56" y="91.44" width="12.31" height="12.31" fill="#f06fa0"/>
<rect x="226.4" y="91.44" width="12.31" height="12.31" fill="#f06fa0"/>
<rect x="238.24" y="91.44" width="12.31" height="12.31" fill="#f06fa0"/>
<rect x="250.08" y="91.44" width="12.31" height="12.31" fill="#f06fa0"/>
<rect x="261.92" y="91.44" width="12.31" height="12.31" fill="#f06fa0"/>
<rect x="273.76" y="91.44" width="12.31" height="12.31" fill="#ffb3d1"/>
<rect x="285.6" y="91.44" width="12.31" height="12.31" fill="#ffb3d1"/>
<rect x="297.44" y="91.44" width="12.31" height="12.31" fill="#ffb3d1"/>
<rect x="309.28" y="91.44" width="12.31" height="12.31" fill="#ffb3d1"/>
<rect x="321.12" y="91.44" width="12.31" height="12.31" fill="#f06fa0"/>
<rect x="332.96" y="91.44" width="12.31" height="12.31" fill="#f06fa0"/>
<rect x="344.8" y="91.44" width="12.31" height="12.31" fill="#f06fa0"/>
<rect x="356.64" y="91.44" width="12.31" height="12.31" fill="#f06fa0"/>
<rect x="368.48" y="91.44" width="12.31" height="12.31" fill="#c44f86"/>
<rect x="119.84" y="103.28" width="12.31" height="12.31" fill="#f06fa0"/>
<rect x="131.68" y="103.28" width="12.31" height="12.31" fill="#f06fa0"/>
<rect x="143.52" y="103.28" width="12.31" height="12.31" fill="#f06fa0"/>
<rect x="155.36" y="103.28" width="12.31" height="12.31" fill="#f06fa0"/>
<rect x="167.2" y="103.28" width="12.31" height="12.31" fill="#f06fa0"/>
<rect x="179.04" y="103.28" width="12.31" height="12.31" fill="#f06fa0"/>
<rect x="190.88" y="103.28" width="12.31" height="12.31" fill="#f06fa0"/>
<rect x="202.72" y="103.28" width="12.31" height="12.31" fill="#f06fa0"/>
<rect x="214.56" y="103.28" width="12.31" height="12.31" fill="#f06fa0"/>
<rect x="226.4" y="103.28" width="12.31" height="12.31" fill="#f06fa0"/>
<rect x="238.24" y="103.28" width="12.31" height="12.31" fill="#f06fa0"/>
<rect x="250.08" y="103.28" width="12.31" height="12.31" fill="#f06fa0"/>
<rect x="261.92" y="103.28" width="12.31" height="12.31" fill="#ffb3d1"/>
<rect x="273.76" y="103.28" width="12.31" height="12.31" fill="#ffb3d1"/>
<rect x="285.6" y="103.28" width="12.31" height="12.31" fill="#ffb3d1"/>
<rect x="297.44" y="103.28" width="12.31" height="12.31" fill="#ffb3d1"/>
<rect x="309.28" y="103.28" width="12.31" height="12.31" fill="#ffb3d1"/>
<rect x="321.12" y="103.28" width="12.31" height="12.31" fill="#ffb3d1"/>
<rect x="332.96" y="103.28" width="12.31" height="12.31" fill="#f06fa0"/>
<rect x="344.8" y="103.28" width="12.31" height="12.31" fill="#f06fa0"/>
<rect x="356.64" y="103.28" width="12.31" height="12.31" fill="#f06fa0"/>
<rect x="368.48" y="103.28" width="12.31" height="12.31" fill="#c44f86"/>
<rect x="108" y="115.12" width="12.31" height="12.31" fill="#f06fa0"/>
<rect x="119.84" y="115.12" width="12.31" height="12.31" fill="#f06fa0"/>
<rect x="131.68" y="115.12" width="12.31" height="12.31" fill="#f06fa0"/>
<rect x="143.52" y="115.12" width="12.31" height="12.31" fill="#f06fa0"/>
<rect x="155.36" y="115.12" width="12.31" height="12.31" fill="#f06fa0"/>
<rect x="167.2" y="115.12" width="12.31" height="12.31" fill="#f06fa0"/>
<rect x="179.04" y="115.12" width="12.31" height="12.31" fill="#f06fa0"/>
<rect x="190.88" y="115.12" width="12.31" height="12.31" fill="#f06fa0"/>
<rect x="202.72" y="115.12" width="12.31" height="12.31" fill="#f06fa0"/>
<rect x="214.56" y="115.12" width="12.31" height="12.31" fill="#f06fa0"/>
<rect x="226.4" y="115.12" width="12.31" height="12.31" fill="#f06fa0"/>
<rect x="238.24" y="115.12" width="12.31" height="12.31" fill="#f06fa0"/>
<rect x="250.08" y="115.12" width="12.31" height="12.31" fill="#f06fa0"/>
<rect x="261.92" y="115.12" width="12.31" height="12.31" fill="#ffb3d1"/>
<rect x="273.76" y="115.12" width="12.31" height="12.31" fill="#ffb3d1"/>
<rect x="285.6" y="115.12" width="12.31" height="12.31" fill="#ffb3d1"/>
<rect x="297.44" y="115.12" width="12.31" height="12.31" fill="#ffb3d1"/>
<rect x="309.28" y="115.12" width="12.31" height="12.31" fill="#ffb3d1"/>
<rect x="321.12" y="115.12" width="12.31" height="12.31" fill="#ffb3d1"/>
<rect x="332.96" y="115.12" width="12.31" height="12.31" fill="#f06fa0"/>
<rect x="344.8" y="115.12" width="12.31" height="12.31" fill="#f06fa0"/>
<rect x="356.64" y="115.12" width="12.31" height="12.31" fill="#f06fa0"/>
<rect x="368.48" y="115.12" width="12.31" height="12.31" fill="#f06fa0"/>
<rect x="380.32" y="115.12" width="12.31" height="12.31" fill="#c44f86"/>
<rect x="108" y="126.96" width="12.31" height="12.31" fill="#f06fa0"/>
<rect x="119.84" y="126.96" width="12.31" height="12.31" fill="#f06fa0"/>
<rect x="131.68" y="126.96" width="12.31" height="12.31" fill="#f06fa0"/>
<rect x="143.52" y="126.96" width="12.31" height="12.31" fill="#f06fa0"/>
<rect x="155.36" y="126.96" width="12.31" height="12.31" fill="#f06fa0"/>
<rect x="167.2" y="126.96" width="12.31" height="12.31" fill="#f06fa0"/>
<rect x="179.04" y="126.96" width="12.31" height="12.31" fill="#f06fa0"/>
<rect x="190.88" y="126.96" width="12.31" height="12.31" fill="#f06fa0"/>
<rect x="202.72" y="126.96" width="12.31" height="12.31" fill="#f06fa0"/>
<rect x="214.56" y="126.96" width="12.31" height="12.31" fill="#f06fa0"/>
<rect x="226.4" y="126.96" width="12.31" height="12.31" fill="#f06fa0"/>
<rect x="238.24" y="126.96" width="12.31" height="12.31" fill="#f06fa0"/>
<rect x="250.08" y="126.96" width="12.31" height="12.31" fill="#f06fa0"/>
<rect x="261.92" y="126.96" width="12.31" height="12.31" fill="#ffb3d1"/>
<rect x="273.76" y="126.96" width="12.31" height="12.31" fill="#ffb3d1"/>
<rect x="285.6" y="126.96" width="12.31" height="12.31" fill="#ffb3d1"/>
<rect x="297.44" y="126.96" width="12.31" height="12.31" fill="#ffb3d1"/>
<rect x="309.28" y="126.96" width="12.31" height="12.31" fill="#ffb3d1"/>
<rect x="321.12" y="126.96" width="12.31" height="12.31" fill="#ffb3d1"/>
<rect x="332.96" y="126.96" width="12.31" height="12.31" fill="#f06fa0"/>
<rect x="344.8" y="126.96" width="12.31" height="12.31" fill="#f06fa0"/>
<rect x="356.64" y="126.96" width="12.31" height="12.31" fill="#f06fa0"/>
<rect x="368.48" y="126.96" width="12.31" height="12.31" fill="#f06fa0"/>
<rect x="380.32" y="126.96" width="12.31" height="12.31" fill="#c44f86"/>
<rect x="108" y="138.8" width="12.31" height="12.31" fill="#f06fa0"/>
<rect x="119.84" y="138.8" width="12.31" height="12.31" fill="#f06fa0"/>
<rect x="131.68" y="138.8" width="12.31" height="12.31" fill="#f06fa0"/>
<rect x="143.52" y="138.8" width="12.31" height="12.31" fill="#f06fa0"/>
<rect x="155.36" y="138.8" width="12.31" height="12.31" fill="#f06fa0"/>
<rect x="167.2" y="138.8" width="12.31" height="12.31" fill="#f06fa0"/>
<rect x="179.04" y="138.8" width="12.31" height="12.31" fill="#f06fa0"/>
<rect x="190.88" y="138.8" width="12.31" height="12.31" fill="#f06fa0"/>
<rect x="202.72" y="138.8" width="12.31" height="12.31" fill="#f06fa0"/>
<rect x="214.56" y="138.8" width="12.31" height="12.31" fill="#f06fa0"/>
<rect x="226.4" y="138.8" width="12.31" height="12.31" fill="#f06fa0"/>
<rect x="238.24" y="138.8" width="12.31" height="12.31" fill="#f06fa0"/>
<rect x="250.08" y="138.8" width="12.31" height="12.31" fill="#f06fa0"/>
<rect x="261.92" y="138.8" width="12.31" height="12.31" fill="#ffb3d1"/>
<rect x="273.76" y="138.8" width="12.31" height="12.31" fill="#ffb3d1"/>
<rect x="285.6" y="138.8" width="12.31" height="12.31" fill="#ffb3d1"/>
<rect x="297.44" y="138.8" width="12.31" height="12.31" fill="#ffb3d1"/>
<rect x="309.28" y="138.8" width="12.31" height="12.31" fill="#ffb3d1"/>
<rect x="321.12" y="138.8" width="12.31" height="12.31" fill="#ffb3d1"/>
<rect x="332.96" y="138.8" width="12.31" height="12.31" fill="#f06fa0"/>
<rect x="344.8" y="138.8" width="12.31" height="12.31" fill="#f06fa0"/>
<rect x="356.64" y="138.8" width="12.31" height="12.31" fill="#f06fa0"/>
<rect x="368.48" y="138.8" width="12.31" height="12.31" fill="#f06fa0"/>
<rect x="380.32" y="138.8" width="12.31" height="12.31" fill="#c44f86"/>
<rect x="108" y="150.64" width="12.31" height="12.31" fill="#f06fa0"/>
<rect x="119.84" y="150.64" width="12.31" height="12.31" fill="#f06fa0"/>
<rect x="131.68" y="150.64" width="12.31" height="12.31" fill="#f06fa0"/>
<rect x="143.52" y="150.64" width="12.31" height="12.31" fill="#f06fa0"/>
<rect x="155.36" y="150.64" width="12.31" height="12.31" fill="#f06fa0"/>
<rect x="167.2" y="150.64" width="12.31" height="12.31" fill="#f06fa0"/>
<rect x="179.04" y="150.64" width="12.31" height="12.31" fill="#f06fa0"/>
<rect x="190.88" y="150.64" width="12.31" height="12.31" fill="#f06fa0"/>
<rect x="202.72" y="150.64" width="12.31" height="12.31" fill="#f06fa0"/>
<rect x="214.56" y="150.64" width="12.31" height="12.31" fill="#f06fa0"/>
<rect x="226.4" y="150.64" width="12.31" height="12.31" fill="#f06fa0"/>
<rect x="238.24" y="150.64" width="12.31" height="12.31" fill="#f06fa0"/>
<rect x="250.08" y="150.64" width="12.31" height="12.31" fill="#f06fa0"/>
<rect x="261.92" y="150.64" width="12.31" height="12.31" fill="#f06fa0"/>
<rect x="273.76" y="150.64" width="12.31" height="12.31" fill="#ffb3d1"/>
<rect x="285.6" y="150.64" width="12.31" height="12.31" fill="#ffb3d1"/>
<rect x="297.44" y="150.64" width="12.31" height="12.31" fill="#ffb3d1"/>
<rect x="309.28" y="150.64" width="12.31" height="12.31" fill="#ffb3d1"/>
<rect x="321.12" y="150.64" width="12.31" height="12.31" fill="#f06fa0"/>
<rect x="332.96" y="150.64" width="12.31" height="12.31" fill="#f06fa0"/>
<rect x="344.8" y="150.64" width="12.31" height="12.31" fill="#f06fa0"/>
<rect x="356.64" y="150.64" width="12.31" height="12.31" fill="#f06fa0"/>
<rect x="368.48" y="150.64" width="12.31" height="12.31" fill="#f06fa0"/>
<rect x="380.32" y="150.64" width="12.31" height="12.31" fill="#c44f86"/>
<rect x="108" y="162.48" width="12.31" height="12.31" fill="#f06fa0"/>
<rect x="119.84" y="162.48" width="12.31" height="12.31" fill="#f06fa0"/>
<rect x="131.68" y="162.48" width="12.31" height="12.31" fill="#f06fa0"/>
<rect x="143.52" y="162.48" width="12.31" height="12.31" fill="#f06fa0"/>
<rect x="155.36" y="162.48" width="12.31" height="12.31" fill="#f06fa0"/>
<rect x="167.2" y="162.48" width="12.31" height="12.31" fill="#f06fa0"/>
<rect x="179.04" y="162.48" width="12.31" height="12.31" fill="#f06fa0"/>
<rect x="190.88" y="162.48" width="12.31" height="12.31" fill="#f06fa0"/>
<rect x="202.72" y="162.48" width="12.31" height="12.31" fill="#f06fa0"/>
<rect x="214.56" y="162.48" width="12.31" height="12.31" fill="#f06fa0"/>
<rect x="226.4" y="162.48" width="12.31" height="12.31" fill="#f06fa0"/>
<rect x="238.24" y="162.48" width="12.31" height="12.31" fill="#f06fa0"/>
<rect x="250.08" y="162.48" width="12.31" height="12.31" fill="#f06fa0"/>
<rect x="261.92" y="162.48" width="12.31" height="12.31" fill="#f06fa0"/>
<rect x="273.76" y="162.48" width="12.31" height="12.31" fill="#f06fa0"/>
<rect x="285.6" y="162.48" width="12.31" height="12.31" fill="#f06fa0"/>
<rect x="297.44" y="162.48" width="12.31" height="12.31" fill="#f06fa0"/>
<rect x="309.28" y="162.48" width="12.31" height="12.31" fill="#f06fa0"/>
<rect x="321.12" y="162.48" width="12.31" height="12.31" fill="#f06fa0"/>
<rect x="332.96" y="162.48" width="12.31" height="12.31" fill="#f06fa0"/>
<rect x="344.8" y="162.48" width="12.31" height="12.31" fill="#f06fa0"/>
<rect x="356.64" y="162.48" width="12.31" height="12.31" fill="#f06fa0"/>
<rect x="368.48" y="162.48" width="12.31" height="12.31" fill="#f06fa0"/>
<rect x="380.32" y="162.48" width="12.31" height="12.31" fill="#c44f86"/>
<rect x="119.84" y="174.32" width="12.31" height="12.31" fill="#f06fa0"/>
<rect x="131.68" y="174.32" width="12.31" height="12.31" fill="#f06fa0"/>
<rect x="143.52" y="174.32" width="12.31" height="12.31" fill="#f06fa0"/>
<rect x="155.36" y="174.32" width="12.31" height="12.31" fill="#f06fa0"/>
<rect x="167.2" y="174.32" width="12.31" height="12.31" fill="#f06fa0"/>
<rect x="179.04" y="174.32" width="12.31" height="12.31" fill="#f06fa0"/>
<rect x="190.88" y="174.32" width="12.31" height="12.31" fill="#f06fa0"/>
<rect x="202.72" y="174.32" width="12.31" height="12.31" fill="#f06fa0"/>
<rect x="214.56" y="174.32" width="12.31" height="12.31" fill="#f06fa0"/>
<rect x="226.4" y="174.32" width="12.31" height="12.31" fill="#f06fa0"/>
<rect x="238.24" y="174.32" width="12.31" height="12.31" fill="#f06fa0"/>
<rect x="250.08" y="174.32" width="12.31" height="12.31" fill="#f06fa0"/>
<rect x="261.92" y="174.32" width="12.31" height="12.31" fill="#f06fa0"/>
<rect x="273.76" y="174.32" width="12.31" height="12.31" fill="#f06fa0"/>
<rect x="285.6" y="174.32" width="12.31" height="12.31" fill="#f06fa0"/>
<rect x="297.44" y="174.32" width="12.31" height="12.31" fill="#f06fa0"/>
<rect x="309.28" y="174.32" width="12.31" height="12.31" fill="#f06fa0"/>
<rect x="321.12" y="174.32" width="12.31" height="12.31" fill="#f06fa0"/>
<rect x="332.96" y="174.32" width="12.31" height="12.31" fill="#f06fa0"/>
<rect x="344.8" y="174.32" width="12.31" height="12.31" fill="#f06fa0"/>
<rect x="356.64" y="174.32" width="12.31" height="12.31" fill="#f06fa0"/>
<rect x="368.48" y="174.32" width="12.31" height="12.31" fill="#c44f86"/>
<rect x="119.84" y="186.16" width="12.31" height="12.31" fill="#f06fa0"/>
<rect x="131.68" y="186.16" width="12.31" height="12.31" fill="#f06fa0"/>
<rect x="143.52" y="186.16" width="12.31" height="12.31" fill="#f06fa0"/>
<rect x="155.36" y="186.16" width="12.31" height="12.31" fill="#f06fa0"/>
<rect x="167.2" y="186.16" width="12.31" height="12.31" fill="#f06fa0"/>
<rect x="179.04" y="186.16" width="12.31" height="12.31" fill="#f06fa0"/>
<rect x="190.88" y="186.16" width="12.31" height="12.31" fill="#f06fa0"/>
<rect x="202.72" y="186.16" width="12.31" height="12.31" fill="#f06fa0"/>
<rect x="214.56" y="186.16" width="12.31" height="12.31" fill="#f06fa0"/>
<rect x="226.4" y="186.16" width="12.31" height="12.31" fill="#f06fa0"/>
<rect x="238.24" y="186.16" width="12.31" height="12.31" fill="#f06fa0"/>
<rect x="250.08" y="186.16" width="12.31" height="12.31" fill="#f06fa0"/>
<rect x="261.92" y="186.16" width="12.31" height="12.31" fill="#f06fa0"/>
<rect x="273.76" y="186.16" width="12.31" height="12.31" fill="#f06fa0"/>
<rect x="285.6" y="186.16" width="12.31" height="12.31" fill="#f06fa0"/>
<rect x="297.44" y="186.16" width="12.31" height="12.31" fill="#f06fa0"/>
<rect x="309.28" y="186.16" width="12.31" height="12.31" fill="#f06fa0"/>
<rect x="321.12" y="186.16" width="12.31" height="12.31" fill="#f06fa0"/>
<rect x="332.96" y="186.16" width="12.31" height="12.31" fill="#f06fa0"/>
<rect x="344.8" y="186.16" width="12.31" height="12.31" fill="#f06fa0"/>
<rect x="356.64" y="186.16" width="12.31" height="12.31" fill="#f06fa0"/>
<rect x="368.48" y="186.16" width="12.31" height="12.31" fill="#c44f86"/>
<rect x="119.84" y="198" width="12.31" height="12.31" fill="#f06fa0"/>
<rect x="131.68" y="198" width="12.31" height="12.31" fill="#f06fa0"/>
<rect x="143.52" y="198" width="12.31" height="12.31" fill="#f06fa0"/>
<rect x="155.36" y="198" width="12.31" height="12.31" fill="#f06fa0"/>
<rect x="167.2" y="198" width="12.31" height="12.31" fill="#f06fa0"/>
<rect x="179.04" y="198" width="12.31" height="12.31" fill="#f06fa0"/>
<rect x="190.88" y="198" width="12.31" height="12.31" fill="#f06fa0"/>
<rect x="202.72" y="198" width="12.31" height="12.31" fill="#f06fa0"/>
<rect x="214.56" y="198" width="12.31" height="12.31" fill="#f06fa0"/>
<rect x="226.4" y="198" width="12.31" height="12.31" fill="#f06fa0"/>
<rect x="238.24" y="198" width="12.31" height="12.31" fill="#f06fa0"/>
<rect x="250.08" y="198" width="12.31" height="12.31" fill="#f06fa0"/>
<rect x="261.92" y="198" width="12.31" height="12.31" fill="#f06fa0"/>
<rect x="273.76" y="198" width="12.31" height="12.31" fill="#f06fa0"/>
<rect x="285.6" y="198" width="12.31" height="12.31" fill="#f06fa0"/>
<rect x="297.44" y="198" width="12.31" height="12.31" fill="#f06fa0"/>
<rect x="309.28" y="198" width="12.31" height="12.31" fill="#f06fa0"/>
<rect x="321.12" y="198" width="12.31" height="12.31" fill="#f06fa0"/>
<rect x="332.96" y="198" width="12.31" height="12.31" fill="#f06fa0"/>
<rect x="344.8" y="198" width="12.31" height="12.31" fill="#f06fa0"/>
<rect x="356.64" y="198" width="12.31" height="12.31" fill="#f06fa0"/>
<rect x="368.48" y="198" width="12.31" height="12.31" fill="#c44f86"/>
<rect x="131.68" y="209.84" width="12.31" height="12.31" fill="#f06fa0"/>
<rect x="143.52" y="209.84" width="12.31" height="12.31" fill="#f06fa0"/>
<rect x="155.36" y="209.84" width="12.31" height="12.31" fill="#f06fa0"/>
<rect x="167.2" y="209.84" width="12.31" height="12.31" fill="#f06fa0"/>
<rect x="179.04" y="209.84" width="12.31" height="12.31" fill="#f06fa0"/>
<rect x="190.88" y="209.84" width="12.31" height="12.31" fill="#f06fa0"/>
<rect x="202.72" y="209.84" width="12.31" height="12.31" fill="#f06fa0"/>
<rect x="214.56" y="209.84" width="12.31" height="12.31" fill="#f06fa0"/>
<rect x="226.4" y="209.84" width="12.31" height="12.31" fill="#f06fa0"/>
<rect x="238.24" y="209.84" width="12.31" height="12.31" fill="#f06fa0"/>
<rect x="250.08" y="209.84" width="12.31" height="12.31" fill="#f06fa0"/>
<rect x="261.92" y="209.84" width="12.31" height="12.31" fill="#f06fa0"/>
<rect x="273.76" y="209.84" width="12.31" height="12.31" fill="#f06fa0"/>
<rect x="285.6" y="209.84" width="12.31" height="12.31" fill="#f06fa0"/>
<rect x="297.44" y="209.84" width="12.31" height="12.31" fill="#f06fa0"/>
<rect x="309.28" y="209.84" width="12.31" height="12.31" fill="#f06fa0"/>
<rect x="321.12" y="209.84" width="12.31" height="12.31" fill="#f06fa0"/>
<rect x="332.96" y="209.84" width="12.31" height="12.31" fill="#f06fa0"/>
<rect x="344.8" y="209.84" width="12.31" height="12.31" fill="#f06fa0"/>
<rect x="356.64" y="209.84" width="12.31" height="12.31" fill="#c44f86"/>
<rect x="143.52" y="221.68" width="12.31" height="12.31" fill="#f06fa0"/>
<rect x="155.36" y="221.68" width="12.31" height="12.31" fill="#f06fa0"/>
<rect x="167.2" y="221.68" width="12.31" height="12.31" fill="#f06fa0"/>
<rect x="179.04" y="221.68" width="12.31" height="12.31" fill="#f06fa0"/>
<rect x="190.88" y="221.68" width="12.31" height="12.31" fill="#f06fa0"/>
<rect x="202.72" y="221.68" width="12.31" height="12.31" fill="#f06fa0"/>
<rect x="214.56" y="221.68" width="12.31" height="12.31" fill="#f06fa0"/>
<rect x="226.4" y="221.68" width="12.31" height="12.31" fill="#f06fa0"/>
<rect x="238.24" y="221.68" width="12.31" height="12.31" fill="#f06fa0"/>
<rect x="250.08" y="221.68" width="12.31" height="12.31" fill="#f06fa0"/>
<rect x="261.92" y="221.68" width="12.31" height="12.31" fill="#f06fa0"/>
<rect x="273.76" y="221.68" width="12.31" height="12.31" fill="#f06fa0"/>
<rect x="285.6" y="221.68" width="12.31" height="12.31" fill="#f06fa0"/>
<rect x="297.44" y="221.68" width="12.31" height="12.31" fill="#f06fa0"/>
<rect x="309.28" y="221.68" width="12.31" height="12.31" fill="#f06fa0"/>
<rect x="321.12" y="221.68" width="12.31" height="12.31" fill="#f06fa0"/>
<rect x="332.96" y="221.68" width="12.31" height="12.31" fill="#f06fa0"/>
<rect x="344.8" y="221.68" width="12.31" height="12.31" fill="#c44f86"/>
<rect x="143.52" y="233.52" width="12.31" height="12.31" fill="#f06fa0"/>
<rect x="155.36" y="233.52" width="12.31" height="12.31" fill="#f06fa0"/>
<rect x="167.2" y="233.52" width="12.31" height="12.31" fill="#f06fa0"/>
<rect x="179.04" y="233.52" width="12.31" height="12.31" fill="#f06fa0"/>
<rect x="190.88" y="233.52" width="12.31" height="12.31" fill="#f06fa0"/>
<rect x="202.72" y="233.52" width="12.31" height="12.31" fill="#f06fa0"/>
<rect x="214.56" y="233.52" width="12.31" height="12.31" fill="#f06fa0"/>
<rect x="226.4" y="233.52" width="12.31" height="12.31" fill="#f06fa0"/>
<rect x="238.24" y="233.52" width="12.31" height="12.31" fill="#f06fa0"/>
<rect x="250.08" y="233.52" width="12.31" height="12.31" fill="#f06fa0"/>
<rect x="261.92" y="233.52" width="12.31" height="12.31" fill="#f06fa0"/>
<rect x="273.76" y="233.52" width="12.31" height="12.31" fill="#f06fa0"/>
<rect x="285.6" y="233.52" width="12.31" height="12.31" fill="#f06fa0"/>
<rect x="297.44" y="233.52" width="12.31" height="12.31" fill="#f06fa0"/>
<rect x="309.28" y="233.52" width="12.31" height="12.31" fill="#f06fa0"/>
<rect x="321.12" y="233.52" width="12.31" height="12.31" fill="#f06fa0"/>
<rect x="332.96" y="233.52" width="12.31" height="12.31" fill="#f06fa0"/>
<rect x="344.8" y="233.52" width="12.31" height="12.31" fill="#c44f86"/>
<rect x="155.36" y="245.36" width="12.31" height="12.31" fill="#f06fa0"/>
<rect x="167.2" y="245.36" width="12.31" height="12.31" fill="#f06fa0"/>
<rect x="179.04" y="245.36" width="12.31" height="12.31" fill="#f06fa0"/>
<rect x="190.88" y="245.36" width="12.31" height="12.31" fill="#f06fa0"/>
<rect x="202.72" y="245.36" width="12.31" height="12.31" fill="#f06fa0"/>
<rect x="214.56" y="245.36" width="12.31" height="12.31" fill="#f06fa0"/>
<rect x="226.4" y="245.36" width="12.31" height="12.31" fill="#f06fa0"/>
<rect x="238.24" y="245.36" width="12.31" height="12.31" fill="#f06fa0"/>
<rect x="250.08" y="245.36" width="12.31" height="12.31" fill="#f06fa0"/>
<rect x="261.92" y="245.36" width="12.31" height="12.31" fill="#f06fa0"/>
<rect x="273.76" y="245.36" width="12.31" height="12.31" fill="#f06fa0"/>
<rect x="285.6" y="245.36" width="12.31" height="12.31" fill="#f06fa0"/>
<rect x="297.44" y="245.36" width="12.31" height="12.31" fill="#f06fa0"/>
<rect x="309.28" y="245.36" width="12.31" height="12.31" fill="#f06fa0"/>
<rect x="321.12" y="245.36" width="12.31" height="12.31" fill="#f06fa0"/>
<rect x="332.96" y="245.36" width="12.31" height="12.31" fill="#c44f86"/>
<rect x="167.2" y="257.2" width="12.31" height="12.31" fill="#f06fa0"/>
<rect x="179.04" y="257.2" width="12.31" height="12.31" fill="#f06fa0"/>
<rect x="190.88" y="257.2" width="12.31" height="12.31" fill="#f06fa0"/>
<rect x="202.72" y="257.2" width="12.31" height="12.31" fill="#f06fa0"/>
<rect x="214.56" y="257.2" width="12.31" height="12.31" fill="#f06fa0"/>
<rect x="226.4" y="257.2" width="12.31" height="12.31" fill="#f06fa0"/>
<rect x="238.24" y="257.2" width="12.31" height="12.31" fill="#f06fa0"/>
<rect x="250.08" y="257.2" width="12.31" height="12.31" fill="#f06fa0"/>
<rect x="261.92" y="257.2" width="12.31" height="12.31" fill="#f06fa0"/>
<rect x="273.76" y="257.2" width="12.31" height="12.31" fill="#f06fa0"/>
<rect x="285.6" y="257.2" width="12.31" height="12.31" fill="#f06fa0"/>
<rect x="297.44" y="257.2" width="12.31" height="12.31" fill="#f06fa0"/>
<rect x="309.28" y="257.2" width="12.31" height="12.31" fill="#f06fa0"/>
<rect x="321.12" y="257.2" width="12.31" height="12.31" fill="#c44f86"/>
<rect x="179.04" y="269.04" width="12.31" height="12.31" fill="#c44f86"/>
<rect x="190.88" y="269.04" width="12.31" height="12.31" fill="#f06fa0"/>
<rect x="202.72" y="269.04" width="12.31" height="12.31" fill="#f06fa0"/>
<rect x="214.56" y="269.04" width="12.31" height="12.31" fill="#f06fa0"/>
<rect x="226.4" y="269.04" width="12.31" height="12.31" fill="#f06fa0"/>
<rect x="238.24" y="269.04" width="12.31" height="12.31" fill="#f06fa0"/>
<rect x="250.08" y="269.04" width="12.31" height="12.31" fill="#f06fa0"/>
<rect x="261.92" y="269.04" width="12.31" height="12.31" fill="#f06fa0"/>
<rect x="273.76" y="269.04" width="12.31" height="12.31" fill="#f06fa0"/>
<rect x="285.6" y="269.04" width="12.31" height="12.31" fill="#f06fa0"/>
<rect x="297.44" y="269.04" width="12.31" height="12.31" fill="#f06fa0"/>
<rect x="309.28" y="269.04" width="12.31" height="12.31" fill="#c44f86"/>
<rect x="190.88" y="280.88" width="12.31" height="12.31" fill="#c44f86"/>
<rect x="202.72" y="280.88" width="12.31" height="12.31" fill="#c44f86"/>
<rect x="214.56" y="280.88" width="12.31" height="12.31" fill="#f06fa0"/>
<rect x="226.4" y="280.88" width="12.31" height="12.31" fill="#f06fa0"/>
<rect x="238.24" y="280.88" width="12.31" height="12.31" fill="#f06fa0"/>
<rect x="250.08" y="280.88" width="12.31" height="12.31" fill="#f06fa0"/>
<rect x="261.92" y="280.88" width="12.31" height="12.31" fill="#f06fa0"/>
<rect x="273.76" y="280.88" width="12.31" height="12.31" fill="#f06fa0"/>
<rect x="285.6" y="280.88" width="12.31" height="12.31" fill="#c44f86"/>
<rect x="297.44" y="280.88" width="12.31" height="12.31" fill="#c44f86"/>
<rect x="214.56" y="292.72" width="12.31" height="12.31" fill="#c44f86"/>
<rect x="226.4" y="292.72" width="12.31" height="12.31" fill="#f06fa0"/>
<rect x="238.24" y="292.72" width="12.31" height="12.31" fill="#f06fa0"/>
<rect x="250.08" y="292.72" width="12.31" height="12.31" fill="#f06fa0"/>
<rect x="261.92" y="292.72" width="12.31" height="12.31" fill="#f06fa0"/>
<rect x="273.76" y="292.72" width="12.31" height="12.31" fill="#c44f86"/>
<rect x="226.4" y="304.56" width="12.31" height="12.31" fill="#c44f86"/>
<rect x="238.24" y="304.56" width="12.31" height="12.31" fill="#c44f86"/>
<rect x="250.08" y="304.56" width="12.31" height="12.31" fill="#c44f86"/>
<rect x="261.92" y="304.56" width="12.31" height="12.31" fill="#c44f86"/>
<rect x="119.84" y="55.92" width="12.31" height="12.31" fill="#e7b53f"/>
<rect x="131.68" y="55.92" width="12.31" height="12.31" fill="#e7b53f"/>
<rect x="143.52" y="55.92" width="12.31" height="12.31" fill="#e7b53f"/>
<rect x="119.84" y="67.76" width="12.31" height="12.31" fill="#e7b53f"/>
<rect x="131.68" y="67.76" width="12.31" height="12.31" fill="#e7b53f"/>
<rect x="143.52" y="67.76" width="12.31" height="12.31" fill="#e7b53f"/>
<rect x="155.36" y="67.76" width="12.31" height="12.31" fill="#e7b53f"/>
<rect x="167.2" y="67.76" width="12.31" height="12.31" fill="#e7b53f"/>
<rect x="179.04" y="67.76" width="12.31" height="12.31" fill="#e7b53f"/>
<rect x="190.88" y="67.76" width="12.31" height="12.31" fill="#e7b53f"/>
<rect x="202.72" y="67.76" width="12.31" height="12.31" fill="#e7b53f"/>
<rect x="119.84" y="79.6" width="12.31" height="12.31" fill="#e7b53f"/>
<rect x="131.68" y="79.6" width="12.31" height="12.31" fill="#e7b53f"/>
<rect x="143.52" y="79.6" width="12.31" height="12.31" fill="#e7b53f"/>
<rect x="155.36" y="79.6" width="12.31" height="12.31" fill="#e7b53f"/>
<rect x="167.2" y="79.6" width="12.31" height="12.31" fill="#e7b53f"/>
<rect x="179.04" y="79.6" width="12.31" height="12.31" fill="#e7b53f"/>
<rect x="190.88" y="79.6" width="12.31" height="12.31" fill="#e7b53f"/>
<rect x="202.72" y="79.6" width="12.31" height="12.31" fill="#e7b53f"/>
<rect x="131.68" y="91.44" width="12.31" height="12.31" fill="#e7b53f"/>
<rect x="143.52" y="91.44" width="12.31" height="12.31" fill="#e7b53f"/>
<rect x="155.36" y="91.44" width="12.31" height="12.31" fill="#e7b53f"/>
<rect x="167.2" y="91.44" width="12.31" height="12.31" fill="#e7b53f"/>
<rect x="179.04" y="91.44" width="12.31" height="12.31" fill="#e7b53f"/>
<rect x="190.88" y="91.44" width="12.31" height="12.31" fill="#e7b53f"/>
<rect x="131.68" y="103.28" width="12.31" height="12.31" fill="#e7b53f"/>
<rect x="143.52" y="103.28" width="12.31" height="12.31" fill="#e7b53f"/>
<rect x="155.36" y="103.28" width="12.31" height="12.31" fill="#e7b53f"/>
<rect x="167.2" y="103.28" width="12.31" height="12.31" fill="#e7b53f"/>
<rect x="179.04" y="103.28" width="12.31" height="12.31" fill="#e7b53f"/>
<rect x="190.88" y="103.28" width="12.31" height="12.31" fill="#e7b53f"/>
<rect x="131.68" y="115.12" width="12.31" height="12.31" fill="#e7b53f"/>
<rect x="143.52" y="115.12" width="12.31" height="12.31" fill="#e7b53f"/>
<rect x="155.36" y="115.12" width="12.31" height="12.31" fill="#e7b53f"/>
<rect x="167.2" y="115.12" width="12.31" height="12.31" fill="#e7b53f"/>
<rect x="179.04" y="115.12" width="12.31" height="12.31" fill="#e7b53f"/>
<rect x="190.88" y="115.12" width="12.31" height="12.31" fill="#e7b53f"/>
<rect x="202.72" y="115.12" width="12.31" height="12.31" fill="#e7b53f"/>
<rect x="131.68" y="126.96" width="12.31" height="12.31" fill="#e7b53f"/>
<rect x="143.52" y="126.96" width="12.31" height="12.31" fill="#e7b53f"/>
<rect x="155.36" y="126.96" width="12.31" height="12.31" fill="#e7b53f"/>
<rect x="167.2" y="126.96" width="12.31" height="12.31" fill="#e7b53f"/>
<rect x="179.04" y="126.96" width="12.31" height="12.31" fill="#e7b53f"/>
<rect x="190.88" y="126.96" width="12.31" height="12.31" fill="#e7b53f"/>
<rect x="202.72" y="126.96" width="12.31" height="12.31" fill="#e7b53f"/>
<rect x="214.56" y="126.96" width="12.31" height="12.31" fill="#e7b53f"/>
<rect x="131.68" y="138.8" width="12.31" height="12.31" fill="#e7b53f"/>
<rect x="143.52" y="138.8" width="12.31" height="12.31" fill="#e7b53f"/>
<rect x="179.04" y="138.8" width="12.31" height="12.31" fill="#e7b53f"/>
<rect x="190.88" y="138.8" width="12.31" height="12.31" fill="#e7b53f"/>
<rect x="202.72" y="138.8" width="12.31" height="12.31" fill="#e7b53f"/>
<rect x="214.56" y="138.8" width="12.31" height="12.31" fill="#e7b53f"/>
<rect x="226.4" y="138.8" width="12.31" height="12.31" fill="#e7b53f"/>
<rect x="190.88" y="150.64" width="12.31" height="12.31" fill="#e7b53f"/>
<rect x="202.72" y="150.64" width="12.31" height="12.31" fill="#e7b53f"/>
<rect x="214.56" y="150.64" width="12.31" height="12.31" fill="#e7b53f"/>
<rect x="226.4" y="150.64" width="12.31" height="12.31" fill="#e7b53f"/>
<rect x="238.24" y="150.64" width="12.31" height="12.31" fill="#e7b53f"/>
<rect x="202.72" y="162.48" width="12.31" height="12.31" fill="#e7b53f"/>
<rect x="214.56" y="162.48" width="12.31" height="12.31" fill="#e7b53f"/>
<rect x="226.4" y="162.48" width="12.31" height="12.31" fill="#e7b53f"/>
<rect x="238.24" y="162.48" width="12.31" height="12.31" fill="#e7b53f"/>
<rect x="250.08" y="162.48" width="12.31" height="12.31" fill="#e7b53f"/>
<rect x="214.56" y="174.32" width="12.31" height="12.31" fill="#e7b53f"/>
<rect x="226.4" y="174.32" width="12.31" height="12.31" fill="#e7b53f"/>
<rect x="238.24" y="174.32" width="12.31" height="12.31" fill="#e7b53f"/>
<rect x="250.08" y="174.32" width="12.31" height="12.31" fill="#e7b53f"/>
<rect x="261.92" y="174.32" width="12.31" height="12.31" fill="#e7b53f"/>
<rect x="226.4" y="186.16" width="12.31" height="12.31" fill="#e7b53f"/>
<rect x="238.24" y="186.16" width="12.31" height="12.31" fill="#e7b53f"/>
<rect x="250.08" y="186.16" width="12.31" height="12.31" fill="#e7b53f"/>
<rect x="261.92" y="186.16" width="12.31" height="12.31" fill="#e7b53f"/>
<rect x="273.76" y="186.16" width="12.31" height="12.31" fill="#e7b53f"/>
<rect x="238.24" y="198" width="12.31" height="12.31" fill="#e7b53f"/>
<rect x="250.08" y="198" width="12.31" height="12.31" fill="#e7b53f"/>
<rect x="261.92" y="198" width="12.31" height="12.31" fill="#e7b53f"/>
<rect x="273.76" y="198" width="12.31" height="12.31" fill="#e7b53f"/>
<rect x="285.6" y="198" width="12.31" height="12.31" fill="#e7b53f"/>
<rect x="250.08" y="209.84" width="12.31" height="12.31" fill="#e7b53f"/>
<rect x="261.92" y="209.84" width="12.31" height="12.31" fill="#e7b53f"/>
<rect x="273.76" y="209.84" width="12.31" height="12.31" fill="#e7b53f"/>
<rect x="285.6" y="209.84" width="12.31" height="12.31" fill="#e7b53f"/>
<rect x="261.92" y="221.68" width="12.31" height="12.31" fill="#e7b53f"/>
<rect x="273.76" y="221.68" width="12.31" height="12.31" fill="#e7b53f"/>
<rect x="285.6" y="221.68" width="12.31" height="12.31" fill="#e7b53f"/>
<rect x="297.44" y="221.68" width="12.31" height="12.31" fill="#e7b53f"/>
<rect x="285.6" y="233.52" width="12.31" height="12.31" fill="#e7b53f"/>
<rect x="297.44" y="233.52" width="12.31" height="12.31" fill="#e7b53f"/>
<rect x="309.28" y="233.52" width="12.31" height="12.31" fill="#e7b53f"/>
<rect x="321.12" y="233.52" width="12.31" height="12.31" fill="#b07f2c"/>
<rect x="332.96" y="233.52" width="12.31" height="12.31" fill="#b07f2c"/>
<rect x="344.8" y="233.52" width="12.31" height="12.31" fill="#b07f2c"/>
<rect x="356.64" y="233.52" width="12.31" height="12.31" fill="#b07f2c"/>
<rect x="368.48" y="233.52" width="12.31" height="12.31" fill="#b07f2c"/>
<rect x="380.32" y="233.52" width="12.31" height="12.31" fill="#b07f2c"/>
<rect x="392.16" y="233.52" width="12.31" height="12.31" fill="#b07f2c"/>
<rect x="297.44" y="245.36" width="12.31" height="12.31" fill="#e7b53f"/>
<rect x="309.28" y="245.36" width="12.31" height="12.31" fill="#e7b53f"/>
<rect x="321.12" y="245.36" width="12.31" height="12.31" fill="#e7b53f"/>
<rect x="344.8" y="245.36" width="12.31" height="12.31" fill="#b07f2c"/>
<rect x="356.64" y="245.36" width="12.31" height="12.31" fill="#b07f2c"/>
<rect x="368.48" y="245.36" width="12.31" height="12.31" fill="#b07f2c"/>
<rect x="380.32" y="245.36" width="12.31" height="12.31" fill="#b07f2c"/>
<rect x="297.44" y="257.2" width="12.31" height="12.31" fill="#b07f2c"/>
<rect x="309.28" y="257.2" width="12.31" height="12.31" fill="#e7b53f"/>
<rect x="321.12" y="257.2" width="12.31" height="12.31" fill="#e7b53f"/>
<rect x="332.96" y="257.2" width="12.31" height="12.31" fill="#e7b53f"/>
<rect x="297.44" y="269.04" width="12.31" height="12.31" fill="#b07f2c"/>
<rect x="321.12" y="269.04" width="12.31" height="12.31" fill="#e7b53f"/>
<rect x="332.96" y="269.04" width="12.31" height="12.31" fill="#e7b53f"/>
<rect x="344.8" y="269.04" width="12.31" height="12.31" fill="#e7b53f"/>
<rect x="297.44" y="280.88" width="12.31" height="12.31" fill="#b07f2c"/>
<rect x="309.28" y="280.88" width="12.31" height="12.31" fill="#b07f2c"/>
<rect x="332.96" y="280.88" width="12.31" height="12.31" fill="#e7b53f"/>
<rect x="344.8" y="280.88" width="12.31" height="12.31" fill="#e7b53f"/>
<rect x="297.44" y="292.72" width="12.31" height="12.31" fill="#b07f2c"/>
<rect x="309.28" y="292.72" width="12.31" height="12.31" fill="#b07f2c"/>
<rect x="297.44" y="304.56" width="12.31" height="12.31" fill="#b07f2c"/>
<rect x="309.28" y="304.56" width="12.31" height="12.31" fill="#b07f2c"/>
<rect x="297.44" y="316.4" width="12.31" height="12.31" fill="#b07f2c"/>
<rect x="309.28" y="316.4" width="12.31" height="12.31" fill="#b07f2c"/>
<rect x="297.44" y="328.24" width="12.31" height="12.31" fill="#b07f2c"/>
</g>
<text x="256" y="456" font-family="'IBM Plex Mono', ui-monospace, monospace" font-weight="600" font-size="66" text-anchor="middle" letter-spacing="0.01em">
  <tspan fill="#e8e6e0">cupids</tspan><tspan fill="#6fcf97">-</tspan><tspan fill="#e8e6e0">lab</tspan>
</text>

</svg>
