<svg xmlns="http://www.w3.org/2000/svg" viewBox="0 0 64 64" width="64" height="64" role="img" aria-label="CUPIDS Lab">
<metadata>CUPIDS Lab — generated from _data/brand.yml. A brand and graphic identity for an academic public interest data lab. A black terminal with monospace fonts and syntax initially feels intimidating and cold. A near-black canvas, CU gold accents, an IBM Plex Mono "cupids-lab" wordmark. The recurring Cupid idiom is a "heart with arrow" drawn as 8-bit pixel art — a retro, terminal / coding-agent nod rather than the proprietary emoji. The Unicode "color heart" palette still provides variation in the decorative art, and the ASCII heart "&lt;3" lives on as playful microcopy. Restrained and civic with a little matchmaker playfulness.</metadata>
<rect width="64" height="64" rx="13" fill="#0e0f12"/>
<g shape-rendering="crispEdges">
<rect x="15" y="8" width="2.08" height="2.08" fill="#f06fa0"/>
<rect x="17" y="8" width="2.08" height="2.08" fill="#f06fa0"/>
<rect x="19" y="8" width="2.08" height="2.08" fill="#f06fa0"/>
<rect x="21" y="8" width="2.08" height="2.08" fill="#f06fa0"/>
<rect x="23" y="8" width="2.08" height="2.08" fill="#f06fa0"/>
<rect x="25" y="8" width="2.08" height="2.08" fill="#f06fa0"/>
<rect x="35" y="8" width="2.08" height="2.08" fill="#f06fa0"/>
<rect x="37" y="8" width="2.08" height="2.08" fill="#f06fa0"/>
<rect x="39" y="8" width="2.08" height="2.08" fill="#f06fa0"/>
<rect x="41" y="8" width="2.08" height="2.08" fill="#f06fa0"/>
<rect x="43" y="8" width="2.08" height="2.08" fill="#f06fa0"/>
<rect x="45" y="8" width="2.08" height="2.08" fill="#f06fa0"/>
<rect x="11" y="10" width="2.08" height="2.08" fill="#f06fa0"/>
<rect x="13" y="10" width="2.08" height="2.08" fill="#f06fa0"/>
<rect x="15" y="10" width="2.08" height="2.08" fill="#f06fa0"/>
<rect x="17" y="10" width="2.08" height="2.08" fill="#f06fa0"/>
<rect x="19" y="10" width="2.08" height="2.08" fill="#f06fa0"/>
<rect x="21" y="10" width="2.08" height="2.08" fill="#f06fa0"/>
<rect x="23" y="10" width="2.08" height="2.08" fill="#f06fa0"/>
<rect x="25" y="10" width="2.08" height="2.08" fill="#f06fa0"/>
<rect x="27" y="10" width="2.08" height="2.08" fill="#f06fa0"/>
<rect x="33" y="10" width="2.08" height="2.08" fill="#f06fa0"/>
<rect x="35" y="10" width="2.08" height="2.08" fill="#f06fa0"/>
<rect x="37" y="10" width="2.08" height="2.08" fill="#f06fa0"/>
<rect x="39" y="10" width="2.08" height="2.08" fill="#f06fa0"/>
<rect x="41" y="10" width="2.08" height="2.08" fill="#f06fa0"/>
<rect x="43" y="10" width="2.08" height="2.08" fill="#f06fa0"/>
<rect x="45" y="10" width="2.08" height="2.08" fill="#f06fa0"/>
<rect x="47" y="10" width="2.08" height="2.08" fill="#f06fa0"/>
<rect x="49" y="10" width="2.08" height="2.08" fill="#f06fa0"/>
<rect x="11" y="12" width="2.08" height="2.08" fill="#f06fa0"/>
<rect x="13" y="12" width="2.08" height="2.08" fill="#f06fa0"/>
<rect x="15" y="12" width="2.08" height="2.08" fill="#f06fa0"/>
<rect x="17" y="12" width="2.08" height="2.08" fill="#f06fa0"/>
<rect x="19" y="12" width="2.08" height="2.08" fill="#f06fa0"/>
<rect x="21" y="12" width="2.08" height="2.08" fill="#f06fa0"/>
<rect x="23" y="12" width="2.08" height="2.08" fill="#f06fa0"/>
<rect x="25" y="12" width="2.08" height="2.08" fill="#f06fa0"/>
<rect x="27" y="12" width="2.08" height="2.08" fill="#f06fa0"/>
<rect x="29" y="12" width="2.08" height="2.08" fill="#f06fa0"/>
<rect x="31" y="12" width="2.08" height="2.08" fill="#f06fa0"/>
<rect x="33" y="12" width="2.08" height="2.08" fill="#f06fa0"/>
<rect x="35" y="12" width="2.08" height="2.08" fill="#f06fa0"/>
<rect x="37" y="12" width="2.08" height="2.08" fill="#f06fa0"/>
<rect x="39" y="12" width="2.08" height="2.08" fill="#f06fa0"/>
<rect x="41" y="12" width="2.08" height="2.08" fill="#f06fa0"/>
<rect x="43" y="12" width="2.08" height="2.08" fill="#f06fa0"/>
<rect x="45" y="12" width="2.08" height="2.08" fill="#f06fa0"/>
<rect x="47" y="12" width="2.08" height="2.08" fill="#f06fa0"/>
<rect x="49" y="12" width="2.08" height="2.08" fill="#c44f86"/>
<rect x="9" y="14" width="2.08" height="2.08" fill="#f06fa0"/>
<rect x="11" y="14" width="2.08" height="2.08" fill="#f06fa0"/>
<rect x="13" y="14" width="2.08" height="2.08" fill="#f06fa0"/>
<rect x="15" y="14" width="2.08" height="2.08" fill="#f06fa0"/>
<rect x="17" y="14" width="2.08" height="2.08" fill="#f06fa0"/>
<rect x="19" y="14" width="2.08" height="2.08" fill="#f06fa0"/>
<rect x="21" y="14" width="2.08" height="2.08" fill="#f06fa0"/>
<rect x="23" y="14" width="2.08" height="2.08" fill="#f06fa0"/>
<rect x="25" y="14" width="2.08" height="2.08" fill="#f06fa0"/>
<rect x="27" y="14" width="2.08" height="2.08" fill="#f06fa0"/>
<rect x="29" y="14" width="2.08" height="2.08" fill="#f06fa0"/>
<rect x="31" y="14" width="2.08" height="2.08" fill="#f06fa0"/>
<rect x="33" y="14" width="2.08" height="2.08" fill="#f06fa0"/>
<rect x="35" y="14" width="2.08" height="2.08" fill="#ffb3d1"/>
<rect x="37" y="14" width="2.08" height="2.08" fill="#ffb3d1"/>
<rect x="39" y="14" width="2.08" height="2.08" fill="#ffb3d1"/>
<rect x="41" y="14" width="2.08" height="2.08" fill="#ffb3d1"/>
<rect x="43" y="14" width="2.08" height="2.08" fill="#f06fa0"/>
<rect x="45" y="14" width="2.08" height="2.08" fill="#f06fa0"/>
<rect x="47" y="14" width="2.08" height="2.08" fill="#f06fa0"/>
<rect x="49" y="14" width="2.08" height="2.08" fill="#f06fa0"/>
<rect x="51" y="14" width="2.08" height="2.08" fill="#c44f86"/>
<rect x="9" y="16" width="2.08" height="2.08" fill="#f06fa0"/>
<rect x="11" y="16" width="2.08" height="2.08" fill="#f06fa0"/>
<rect x="13" y="16" width="2.08" height="2.08" fill="#f06fa0"/>
<rect x="15" y="16" width="2.08" height="2.08" fill="#f06fa0"/>
<rect x="17" y="16" width="2.08" height="2.08" fill="#f06fa0"/>
<rect x="19" y="16" width="2.08" height="2.08" fill="#f06fa0"/>
<rect x="21" y="16" width="2.08" height="2.08" fill="#f06fa0"/>
<rect x="23" y="16" width="2.08" height="2.08" fill="#f06fa0"/>
<rect x="25" y="16" width="2.08" height="2.08" fill="#f06fa0"/>
<rect x="27" y="16" width="2.08" height="2.08" fill="#f06fa0"/>
<rect x="29" y="16" width="2.08" height="2.08" fill="#f06fa0"/>
<rect x="31" y="16" width="2.08" height="2.08" fill="#f06fa0"/>
<rect x="33" y="16" width="2.08" height="2.08" fill="#ffb3d1"/>
<rect x="35" y="16" width="2.08" height="2.08" fill="#ffb3d1"/>
<rect x="37" y="16" width="2.08" height="2.08" fill="#ffb3d1"/>
<rect x="39" y="16" width="2.08" height="2.08" fill="#ffb3d1"/>
<rect x="41" y="16" width="2.08" height="2.08" fill="#ffb3d1"/>
<rect x="43" y="16" width="2.08" height="2.08" fill="#ffb3d1"/>
<rect x="45" y="16" width="2.08" height="2.08" fill="#f06fa0"/>
<rect x="47" y="16" width="2.08" height="2.08" fill="#f06fa0"/>
<rect x="49" y="16" width="2.08" height="2.08" fill="#f06fa0"/>
<rect x="51" y="16" width="2.08" height="2.08" fill="#c44f86"/>
<rect x="7" y="18" width="2.08" height="2.08" fill="#f06fa0"/>
<rect x="9" y="18" width="2.08" height="2.08" fill="#f06fa0"/>
<rect x="11" y="18" width="2.08" height="2.08" fill="#f06fa0"/>
<rect x="13" y="18" width="2.08" height="2.08" fill="#f06fa0"/>
<rect x="15" y="18" width="2.08" height="2.08" fill="#f06fa0"/>
<rect x="17" y="18" width="2.08" height="2.08" fill="#f06fa0"/>
<rect x="19" y="18" width="2.08" height="2.08" fill="#f06fa0"/>
<rect x="21" y="18" width="2.08" height="2.08" fill="#f06fa0"/>
<rect x="23" y="18" width="2.08" height="2.08" fill="#f06fa0"/>
<rect x="25" y="18" width="2.08" height="2.08" fill="#f06fa0"/>
<rect x="27" y="18" width="2.08" height="2.08" fill="#f06fa0"/>
<rect x="29" y="18" width="2.08" height="2.08" fill="#f06fa0"/>
<rect x="31" y="18" width="2.08" height="2.08" fill="#f06fa0"/>
<rect x="33" y="18" width="2.08" height="2.08" fill="#ffb3d1"/>
<rect x="35" y="18" width="2.08" height="2.08" fill="#ffb3d1"/>
<rect x="37" y="18" width="2.08" height="2.08" fill="#ffb3d1"/>
<rect x="39" y="18" width="2.08" height="2.08" fill="#ffb3d1"/>
<rect x="41" y="18" width="2.08" height="2.08" fill="#ffb3d1"/>
<rect x="43" y="18" width="2.08" height="2.08" fill="#ffb3d1"/>
<rect x="45" y="18" width="2.08" height="2.08" fill="#f06fa0"/>
<rect x="47" y="18" width="2.08" height="2.08" fill="#f06fa0"/>
<rect x="49" y="18" width="2.08" height="2.08" fill="#f06fa0"/>
<rect x="51" y="18" width="2.08" height="2.08" fill="#f06fa0"/>
<rect x="53" y="18" width="2.08" height="2.08" fill="#c44f86"/>
<rect x="7" y="20" width="2.08" height="2.08" fill="#f06fa0"/>
<rect x="9" y="20" width="2.08" height="2.08" fill="#f06fa0"/>
<rect x="11" y="20" width="2.08" height="2.08" fill="#f06fa0"/>
<rect x="13" y="20" width="2.08" height="2.08" fill="#f06fa0"/>
<rect x="15" y="20" width="2.08" height="2.08" fill="#f06fa0"/>
<rect x="17" y="20" width="2.08" height="2.08" fill="#f06fa0"/>
<rect x="19" y="20" width="2.08" height="2.08" fill="#f06fa0"/>
<rect x="21" y="20" width="2.08" height="2.08" fill="#f06fa0"/>
<rect x="23" y="20" width="2.08" height="2.08" fill="#f06fa0"/>
<rect x="25" y="20" width="2.08" height="2.08" fill="#f06fa0"/>
<rect x="27" y="20" width="2.08" height="2.08" fill="#f06fa0"/>
<rect x="29" y="20" width="2.08" height="2.08" fill="#f06fa0"/>
<rect x="31" y="20" width="2.08" height="2.08" fill="#f06fa0"/>
<rect x="33" y="20" width="2.08" height="2.08" fill="#ffb3d1"/>
<rect x="35" y="20" width="2.08" height="2.08" fill="#ffb3d1"/>
<rect x="37" y="20" width="2.08" height="2.08" fill="#ffb3d1"/>
<rect x="39" y="20" width="2.08" height="2.08" fill="#ffb3d1"/>
<rect x="41" y="20" width="2.08" height="2.08" fill="#ffb3d1"/>
<rect x="43" y="20" width="2.08" height="2.08" fill="#ffb3d1"/>
<rect x="45" y="20" width="2.08" height="2.08" fill="#f06fa0"/>
<rect x="47" y="20" width="2.08" height="2.08" fill="#f06fa0"/>
<rect x="49" y="20" width="2.08" height="2.08" fill="#f06fa0"/>
<rect x="51" y="20" width="2.08" height="2.08" fill="#f06fa0"/>
<rect x="53" y="20" width="2.08" height="2.08" fill="#c44f86"/>
<rect x="7" y="22" width="2.08" height="2.08" fill="#f06fa0"/>
<rect x="9" y="22" width="2.08" height="2.08" fill="#f06fa0"/>
<rect x="11" y="22" width="2.08" height="2.08" fill="#f06fa0"/>
<rect x="13" y="22" width="2.08" height="2.08" fill="#f06fa0"/>
<rect x="15" y="22" width="2.08" height="2.08" fill="#f06fa0"/>
<rect x="17" y="22" width="2.08" height="2.08" fill="#f06fa0"/>
<rect x="19" y="22" width="2.08" height="2.08" fill="#f06fa0"/>
<rect x="21" y="22" width="2.08" height="2.08" fill="#f06fa0"/>
<rect x="23" y="22" width="2.08" height="2.08" fill="#f06fa0"/>
<rect x="25" y="22" width="2.08" height="2.08" fill="#f06fa0"/>
<rect x="27" y="22" width="2.08" height="2.08" fill="#f06fa0"/>
<rect x="29" y="22" width="2.08" height="2.08" fill="#f06fa0"/>
<rect x="31" y="22" width="2.08" height="2.08" fill="#f06fa0"/>
<rect x="33" y="22" width="2.08" height="2.08" fill="#ffb3d1"/>
<rect x="35" y="22" width="2.08" height="2.08" fill="#ffb3d1"/>
<rect x="37" y="22" width="2.08" height="2.08" fill="#ffb3d1"/>
<rect x="39" y="22" width="2.08" height="2.08" fill="#ffb3d1"/>
<rect x="41" y="22" width="2.08" height="2.08" fill="#ffb3d1"/>
<rect x="43" y="22" width="2.08" height="2.08" fill="#ffb3d1"/>
<rect x="45" y="22" width="2.08" height="2.08" fill="#f06fa0"/>
<rect x="47" y="22" width="2.08" height="2.08" fill="#f06fa0"/>
<rect x="49" y="22" width="2.08" height="2.08" fill="#f06fa0"/>
<rect x="51" y="22" width="2.08" height="2.08" fill="#f06fa0"/>
<rect x="53" y="22" width="2.08" height="2.08" fill="#c44f86"/>
<rect x="7" y="24" width="2.08" height="2.08" fill="#f06fa0"/>
<rect x="9" y="24" width="2.08" height="2.08" fill="#f06fa0"/>
<rect x="11" y="24" width="2.08" height="2.08" fill="#f06fa0"/>
<rect x="13" y="24" width="2.08" height="2.08" fill="#f06fa0"/>
<rect x="15" y="24" width="2.08" height="2.08" fill="#f06fa0"/>
<rect x="17" y="24" width="2.08" height="2.08" fill="#f06fa0"/>
<rect x="19" y="24" width="2.08" height="2.08" fill="#f06fa0"/>
<rect x="21" y="24" width="2.08" height="2.08" fill="#f06fa0"/>
<rect x="23" y="24" width="2.08" height="2.08" fill="#f06fa0"/>
<rect x="25" y="24" width="2.08" height="2.08" fill="#f06fa0"/>
<rect x="27" y="24" width="2.08" height="2.08" fill="#f06fa0"/>
<rect x="29" y="24" width="2.08" height="2.08" fill="#f06fa0"/>
<rect x="31" y="24" width="2.08" height="2.08" fill="#f06fa0"/>
<rect x="33" y="24" width="2.08" height="2.08" fill="#f06fa0"/>
<rect x="35" y="24" width="2.08" height="2.08" fill="#ffb3d1"/>
<rect x="37" y="24" width="2.08" height="2.08" fill="#ffb3d1"/>
<rect x="39" y="24" width="2.08" height="2.08" fill="#ffb3d1"/>
<rect x="41" y="24" width="2.08" height="2.08" fill="#ffb3d1"/>
<rect x="43" y="24" width="2.08" height="2.08" fill="#f06fa0"/>
<rect x="45" y="24" width="2.08" height="2.08" fill="#f06fa0"/>
<rect x="47" y="24" width="2.08" height="2.08" fill="#f06fa0"/>
<rect x="49" y="24" width="2.08" height="2.08" fill="#f06fa0"/>
<rect x="51" y="24" width="2.08" height="2.08" fill="#f06fa0"/>
<rect x="53" y="24" width="2.08" height="2.08" fill="#c44f86"/>
<rect x="7" y="26" width="2.08" height="2.08" fill="#f06fa0"/>
<rect x="9" y="26" width="2.08" height="2.08" fill="#f06fa0"/>
<rect x="11" y="26" width="2.08" height="2.08" fill="#f06fa0"/>
<rect x="13" y="26" width="2.08" height="2.08" fill="#f06fa0"/>
<rect x="15" y="26" width="2.08" height="2.08" fill="#f06fa0"/>
<rect x="17" y="26" width="2.08" height="2.08" fill="#f06fa0"/>
<rect x="19" y="26" width="2.08" height="2.08" fill="#f06fa0"/>
<rect x="21" y="26" width="2.08" height="2.08" fill="#f06fa0"/>
<rect x="23" y="26" width="2.08" height="2.08" fill="#f06fa0"/>
<rect x="25" y="26" width="2.08" height="2.08" fill="#f06fa0"/>
<rect x="27" y="26" width="2.08" height="2.08" fill="#f06fa0"/>
<rect x="29" y="26" width="2.08" height="2.08" fill="#f06fa0"/>
<rect x="31" y="26" width="2.08" height="2.08" fill="#f06fa0"/>
<rect x="33" y="26" width="2.08" height="2.08" fill="#f06fa0"/>
<rect x="35" y="26" width="2.08" height="2.08" fill="#f06fa0"/>
<rect x="37" y="26" width="2.08" height="2.08" fill="#f06fa0"/>
<rect x="39" y="26" width="2.08" height="2.08" fill="#f06fa0"/>
<rect x="41" y="26" width="2.08" height="2.08" fill="#f06fa0"/>
<rect x="43" y="26" width="2.08" height="2.08" fill="#f06fa0"/>
<rect x="45" y="26" width="2.08" height="2.08" fill="#f06fa0"/>
<rect x="47" y="26" width="2.08" height="2.08" fill="#f06fa0"/>
<rect x="49" y="26" width="2.08" height="2.08" fill="#f06fa0"/>
<rect x="51" y="26" width="2.08" height="2.08" fill="#f06fa0"/>
<rect x="53" y="26" width="2.08" height="2.08" fill="#c44f86"/>
<rect x="9" y="28" width="2.08" height="2.08" fill="#f06fa0"/>
<rect x="11" y="28" width="2.08" height="2.08" fill="#f06fa0"/>
<rect x="13" y="28" width="2.08" height="2.08" fill="#f06fa0"/>
<rect x="15" y="28" width="2.08" height="2.08" fill="#f06fa0"/>
<rect x="17" y="28" width="2.08" height="2.08" fill="#f06fa0"/>
<rect x="19" y="28" width="2.08" height="2.08" fill="#f06fa0"/>
<rect x="21" y="28" width="2.08" height="2.08" fill="#f06fa0"/>
<rect x="23" y="28" width="2.08" height="2.08" fill="#f06fa0"/>
<rect x="25" y="28" width="2.08" height="2.08" fill="#f06fa0"/>
<rect x="27" y="28" width="2.08" height="2.08" fill="#f06fa0"/>
<rect x="29" y="28" width="2.08" height="2.08" fill="#f06fa0"/>
<rect x="31" y="28" width="2.08" height="2.08" fill="#f06fa0"/>
<rect x="33" y="28" width="2.08" height="2.08" fill="#f06fa0"/>
<rect x="35" y="28" width="2.08" height="2.08" fill="#f06fa0"/>
<rect x="37" y="28" width="2.08" height="2.08" fill="#f06fa0"/>
<rect x="39" y="28" width="2.08" height="2.08" fill="#f06fa0"/>
<rect x="41" y="28" width="2.08" height="2.08" fill="#f06fa0"/>
<rect x="43" y="28" width="2.08" height="2.08" fill="#f06fa0"/>
<rect x="45" y="28" width="2.08" height="2.08" fill="#f06fa0"/>
<rect x="47" y="28" width="2.08" height="2.08" fill="#f06fa0"/>
<rect x="49" y="28" width="2.08" height="2.08" fill="#f06fa0"/>
<rect x="51" y="28" width="2.08" height="2.08" fill="#c44f86"/>
<rect x="9" y="30" width="2.08" height="2.08" fill="#f06fa0"/>
<rect x="11" y="30" width="2.08" height="2.08" fill="#f06fa0"/>
<rect x="13" y="30" width="2.08" height="2.08" fill="#f06fa0"/>
<rect x="15" y="30" width="2.08" height="2.08" fill="#f06fa0"/>
<rect x="17" y="30" width="2.08" height="2.08" fill="#f06fa0"/>
<rect x="19" y="30" width="2.08" height="2.08" fill="#f06fa0"/>
<rect x="21" y="30" width="2.08" height="2.08" fill="#f06fa0"/>
<rect x="23" y="30" width="2.08" height="2.08" fill="#f06fa0"/>
<rect x="25" y="30" width="2.08" height="2.08" fill="#f06fa0"/>
<rect x="27" y="30" width="2.08" height="2.08" fill="#f06fa0"/>
<rect x="29" y="30" width="2.08" height="2.08" fill="#f06fa0"/>
<rect x="31" y="30" width="2.08" height="2.08" fill="#f06fa0"/>
<rect x="33" y="30" width="2.08" height="2.08" fill="#f06fa0"/>
<rect x="35" y="30" width="2.08" height="2.08" fill="#f06fa0"/>
<rect x="37" y="30" width="2.08" height="2.08" fill="#f06fa0"/>
<rect x="39" y="30" width="2.08" height="2.08" fill="#f06fa0"/>
<rect x="41" y="30" width="2.08" height="2.08" fill="#f06fa0"/>
<rect x="43" y="30" width="2.08" height="2.08" fill="#f06fa0"/>
<rect x="45" y="30" width="2.08" height="2.08" fill="#f06fa0"/>
<rect x="47" y="30" width="2.08" height="2.08" fill="#f06fa0"/>
<rect x="49" y="30" width="2.08" height="2.08" fill="#f06fa0"/>
<rect x="51" y="30" width="2.08" height="2.08" fill="#c44f86"/>
<rect x="9" y="32" width="2.08" height="2.08" fill="#f06fa0"/>
<rect x="11" y="32" width="2.08" height="2.08" fill="#f06fa0"/>
<rect x="13" y="32" width="2.08" height="2.08" fill="#f06fa0"/>
<rect x="15" y="32" width="2.08" height="2.08" fill="#f06fa0"/>
<rect x="17" y="32" width="2.08" height="2.08" fill="#f06fa0"/>
<rect x="19" y="32" width="2.08" height="2.08" fill="#f06fa0"/>
<rect x="21" y="32" width="2.08" height="2.08" fill="#f06fa0"/>
<rect x="23" y="32" width="2.08" height="2.08" fill="#f06fa0"/>
<rect x="25" y="32" width="2.08" height="2.08" fill="#f06fa0"/>
<rect x="27" y="32" width="2.08" height="2.08" fill="#f06fa0"/>
<rect x="29" y="32" width="2.08" height="2.08" fill="#f06fa0"/>
<rect x="31" y="32" width="2.08" height="2.08" fill="#f06fa0"/>
<rect x="33" y="32" width="2.08" height="2.08" fill="#f06fa0"/>
<rect x="35" y="32" width="2.08" height="2.08" fill="#f06fa0"/>
<rect x="37" y="32" width="2.08" height="2.08" fill="#f06fa0"/>
<rect x="39" y="32" width="2.08" height="2.08" fill="#f06fa0"/>
<rect x="41" y="32" width="2.08" height="2.08" fill="#f06fa0"/>
<rect x="43" y="32" width="2.08" height="2.08" fill="#f06fa0"/>
<rect x="45" y="32" width="2.08" height="2.08" fill="#f06fa0"/>
<rect x="47" y="32" width="2.08" height="2.08" fill="#f06fa0"/>
<rect x="49" y="32" width="2.08" height="2.08" fill="#f06fa0"/>
<rect x="51" y="32" width="2.08" height="2.08" fill="#c44f86"/>
<rect x="11" y="34" width="2.08" height="2.08" fill="#f06fa0"/>
<rect x="13" y="34" width="2.08" height="2.08" fill="#f06fa0"/>
<rect x="15" y="34" width="2.08" height="2.08" fill="#f06fa0"/>
<rect x="17" y="34" width="2.08" height="2.08" fill="#f06fa0"/>
<rect x="19" y="34" width="2.08" height="2.08" fill="#f06fa0"/>
<rect x="21" y="34" width="2.08" height="2.08" fill="#f06fa0"/>
<rect x="23" y="34" width="2.08" height="2.08" fill="#f06fa0"/>
<rect x="25" y="34" width="2.08" height="2.08" fill="#f06fa0"/>
<rect x="27" y="34" width="2.08" height="2.08" fill="#f06fa0"/>
<rect x="29" y="34" width="2.08" height="2.08" fill="#f06fa0"/>
<rect x="31" y="34" width="2.08" height="2.08" fill="#f06fa0"/>
<rect x="33" y="34" width="2.08" height="2.08" fill="#f06fa0"/>
<rect x="35" y="34" width="2.08" height="2.08" fill="#f06fa0"/>
<rect x="37" y="34" width="2.08" height="2.08" fill="#f06fa0"/>
<rect x="39" y="34" width="2.08" height="2.08" fill="#f06fa0"/>
<rect x="41" y="34" width="2.08" height="2.08" fill="#f06fa0"/>
<rect x="43" y="34" width="2.08" height="2.08" fill="#f06fa0"/>
<rect x="45" y="34" width="2.08" height="2.08" fill="#f06fa0"/>
<rect x="47" y="34" width="2.08" height="2.08" fill="#f06fa0"/>
<rect x="49" y="34" width="2.08" height="2.08" fill="#c44f86"/>
<rect x="13" y="36" width="2.08" height="2.08" fill="#f06fa0"/>
<rect x="15" y="36" width="2.08" height="2.08" fill="#f06fa0"/>
<rect x="17" y="36" width="2.08" height="2.08" fill="#f06fa0"/>
<rect x="19" y="36" width="2.08" height="2.08" fill="#f06fa0"/>
<rect x="21" y="36" width="2.08" height="2.08" fill="#f06fa0"/>
<rect x="23" y="36" width="2.08" height="2.08" fill="#f06fa0"/>
<rect x="25" y="36" width="2.08" height="2.08" fill="#f06fa0"/>
<rect x="27" y="36" width="2.08" height="2.08" fill="#f06fa0"/>
<rect x="29" y="36" width="2.08" height="2.08" fill="#f06fa0"/>
<rect x="31" y="36" width="2.08" height="2.08" fill="#f06fa0"/>
<rect x="33" y="36" width="2.08" height="2.08" fill="#f06fa0"/>
<rect x="35" y="36" width="2.08" height="2.08" fill="#f06fa0"/>
<rect x="37" y="36" width="2.08" height="2.08" fill="#f06fa0"/>
<rect x="39" y="36" width="2.08" height="2.08" fill="#f06fa0"/>
<rect x="41" y="36" width="2.08" height="2.08" fill="#f06fa0"/>
<rect x="43" y="36" width="2.08" height="2.08" fill="#f06fa0"/>
<rect x="45" y="36" width="2.08" height="2.08" fill="#f06fa0"/>
<rect x="47" y="36" width="2.08" height="2.08" fill="#c44f86"/>
<rect x="13" y="38" width="2.08" height="2.08" fill="#f06fa0"/>
<rect x="15" y="38" width="2.08" height="2.08" fill="#f06fa0"/>
<rect x="17" y="38" width="2.08" height="2.08" fill="#f06fa0"/>
<rect x="19" y="38" width="2.08" height="2.08" fill="#f06fa0"/>
<rect x="21" y="38" width="2.08" height="2.08" fill="#f06fa0"/>
<rect x="23" y="38" width="2.08" height="2.08" fill="#f06fa0"/>
<rect x="25" y="38" width="2.08" height="2.08" fill="#f06fa0"/>
<rect x="27" y="38" width="2.08" height="2.08" fill="#f06fa0"/>
<rect x="29" y="38" width="2.08" height="2.08" fill="#f06fa0"/>
<rect x="31" y="38" width="2.08" height="2.08" fill="#f06fa0"/>
<rect x="33" y="38" width="2.08" height="2.08" fill="#f06fa0"/>
<rect x="35" y="38" width="2.08" height="2.08" fill="#f06fa0"/>
<rect x="37" y="38" width="2.08" height="2.08" fill="#f06fa0"/>
<rect x="39" y="38" width="2.08" height="2.08" fill="#f06fa0"/>
<rect x="41" y="38" width="2.08" height="2.08" fill="#f06fa0"/>
<rect x="43" y="38" width="2.08" height="2.08" fill="#f06fa0"/>
<rect x="45" y="38" width="2.08" height="2.08" fill="#f06fa0"/>
<rect x="47" y="38" width="2.08" height="2.08" fill="#c44f86"/>
<rect x="15" y="40" width="2.08" height="2.08" fill="#f06fa0"/>
<rect x="17" y="40" width="2.08" height="2.08" fill="#f06fa0"/>
<rect x="19" y="40" width="2.08" height="2.08" fill="#f06fa0"/>
<rect x="21" y="40" width="2.08" height="2.08" fill="#f06fa0"/>
<rect x="23" y="40" width="2.08" height="2.08" fill="#f06fa0"/>
<rect x="25" y="40" width="2.08" height="2.08" fill="#f06fa0"/>
<rect x="27" y="40" width="2.08" height="2.08" fill="#f06fa0"/>
<rect x="29" y="40" width="2.08" height="2.08" fill="#f06fa0"/>
<rect x="31" y="40" width="2.08" height="2.08" fill="#f06fa0"/>
<rect x="33" y="40" width="2.08" height="2.08" fill="#f06fa0"/>
<rect x="35" y="40" width="2.08" height="2.08" fill="#f06fa0"/>
<rect x="37" y="40" width="2.08" height="2.08" fill="#f06fa0"/>
<rect x="39" y="40" width="2.08" height="2.08" fill="#f06fa0"/>
<rect x="41" y="40" width="2.08" height="2.08" fill="#f06fa0"/>
<rect x="43" y="40" width="2.08" height="2.08" fill="#f06fa0"/>
<rect x="45" y="40" width="2.08" height="2.08" fill="#c44f86"/>
<rect x="17" y="42" width="2.08" height="2.08" fill="#f06fa0"/>
<rect x="19" y="42" width="2.08" height="2.08" fill="#f06fa0"/>
<rect x="21" y="42" width="2.08" height="2.08" fill="#f06fa0"/>
<rect x="23" y="42" width="2.08" height="2.08" fill="#f06fa0"/>
<rect x="25" y="42" width="2.08" height="2.08" fill="#f06fa0"/>
<rect x="27" y="42" width="2.08" height="2.08" fill="#f06fa0"/>
<rect x="29" y="42" width="2.08" height="2.08" fill="#f06fa0"/>
<rect x="31" y="42" width="2.08" height="2.08" fill="#f06fa0"/>
<rect x="33" y="42" width="2.08" height="2.08" fill="#f06fa0"/>
<rect x="35" y="42" width="2.08" height="2.08" fill="#f06fa0"/>
<rect x="37" y="42" width="2.08" height="2.08" fill="#f06fa0"/>
<rect x="39" y="42" width="2.08" height="2.08" fill="#f06fa0"/>
<rect x="41" y="42" width="2.08" height="2.08" fill="#f06fa0"/>
<rect x="43" y="42" width="2.08" height="2.08" fill="#c44f86"/>
<rect x="19" y="44" width="2.08" height="2.08" fill="#c44f86"/>
<rect x="21" y="44" width="2.08" height="2.08" fill="#f06fa0"/>
<rect x="23" y="44" width="2.08" height="2.08" fill="#f06fa0"/>
<rect x="25" y="44" width="2.08" height="2.08" fill="#f06fa0"/>
<rect x="27" y="44" width="2.08" height="2.08" fill="#f06fa0"/>
<rect x="29" y="44" width="2.08" height="2.08" fill="#f06fa0"/>
<rect x="31" y="44" width="2.08" height="2.08" fill="#f06fa0"/>
<rect x="33" y="44" width="2.08" height="2.08" fill="#f06fa0"/>
<rect x="35" y="44" width="2.08" height="2.08" fill="#f06fa0"/>
<rect x="37" y="44" width="2.08" height="2.08" fill="#f06fa0"/>
<rect x="39" y="44" width="2.08" height="2.08" fill="#f06fa0"/>
<rect x="41" y="44" width="2.08" height="2.08" fill="#c44f86"/>
<rect x="21" y="46" width="2.08" height="2.08" fill="#c44f86"/>
<rect x="23" y="46" width="2.08" height="2.08" fill="#c44f86"/>
<rect x="25" y="46" width="2.08" height="2.08" fill="#f06fa0"/>
<rect x="27" y="46" width="2.08" height="2.08" fill="#f06fa0"/>
<rect x="29" y="46" width="2.08" height="2.08" fill="#f06fa0"/>
<rect x="31" y="46" width="2.08" height="2.08" fill="#f06fa0"/>
<rect x="33" y="46" width="2.08" height="2.08" fill="#f06fa0"/>
<rect x="35" y="46" width="2.08" height="2.08" fill="#f06fa0"/>
<rect x="37" y="46" width="2.08" height="2.08" fill="#c44f86"/>
<rect x="39" y="46" width="2.08" height="2.08" fill="#c44f86"/>
<rect x="25" y="48" width="2.08" height="2.08" fill="#c44f86"/>
<rect x="27" y="48" width="2.08" height="2.08" fill="#f06fa0"/>
<rect x="29" y="48" width="2.08" height="2.08" fill="#f06fa0"/>
<rect x="31" y="48" width="2.08" height="2.08" fill="#f06fa0"/>
<rect x="33" y="48" width="2.08" height="2.08" fill="#f06fa0"/>
<rect x="35" y="48" width="2.08" height="2.08" fill="#c44f86"/>
<rect x="27" y="50" width="2.08" height="2.08" fill="#c44f86"/>
<rect x="29" y="50" width="2.08" height="2.08" fill="#c44f86"/>
<rect x="31" y="50" width="2.08" height="2.08" fill="#c44f86"/>
<rect x="33" y="50" width="2.08" height="2.08" fill="#c44f86"/>
<rect x="9" y="8" width="2.08" height="2.08" fill="#e7b53f"/>
<rect x="11" y="8" width="2.08" height="2.08" fill="#e7b53f"/>
<rect x="13" y="8" width="2.08" height="2.08" fill="#e7b53f"/>
<rect x="9" y="10" width="2.08" height="2.08" fill="#e7b53f"/>
<rect x="11" y="10" width="2.08" height="2.08" fill="#e7b53f"/>
<rect x="13" y="10" width="2.08" height="2.08" fill="#e7b53f"/>
<rect x="15" y="10" width="2.08" height="2.08" fill="#e7b53f"/>
<rect x="17" y="10" width="2.08" height="2.08" fill="#e7b53f"/>
<rect x="19" y="10" width="2.08" height="2.08" fill="#e7b53f"/>
<rect x="21" y="10" width="2.08" height="2.08" fill="#e7b53f"/>
<rect x="23" y="10" width="2.08" height="2.08" fill="#e7b53f"/>
<rect x="9" y="12" width="2.08" height="2.08" fill="#e7b53f"/>
<rect x="11" y="12" width="2.08" height="2.08" fill="#e7b53f"/>
<rect x="13" y="12" width="2.08" height="2.08" fill="#e7b53f"/>
<rect x="15" y="12" width="2.08" height="2.08" fill="#e7b53f"/>
<rect x="17" y="12" width="2.08" height="2.08" fill="#e7b53f"/>
<rect x="19" y="12" width="2.08" height="2.08" fill="#e7b53f"/>
<rect x="21" y="12" width="2.08" height="2.08" fill="#e7b53f"/>
<rect x="23" y="12" width="2.08" height="2.08" fill="#e7b53f"/>
<rect x="11" y="14" width="2.08" height="2.08" fill="#e7b53f"/>
<rect x="13" y="14" width="2.08" height="2.08" fill="#e7b53f"/>
<rect x="15" y="14" width="2.08" height="2.08" fill="#e7b53f"/>
<rect x="17" y="14" width="2.08" height="2.08" fill="#e7b53f"/>
<rect x="19" y="14" width="2.08" height="2.08" fill="#e7b53f"/>
<rect x="21" y="14" width="2.08" height="2.08" fill="#e7b53f"/>
<rect x="11" y="16" width="2.08" height="2.08" fill="#e7b53f"/>
<rect x="13" y="16" width="2.08" height="2.08" fill="#e7b53f"/>
<rect x="15" y="16" width="2.08" height="2.08" fill="#e7b53f"/>
<rect x="17" y="16" width="2.08" height="2.08" fill="#e7b53f"/>
<rect x="19" y="16" width="2.08" height="2.08" fill="#e7b53f"/>
<rect x="21" y="16" width="2.08" height="2.08" fill="#e7b53f"/>
<rect x="11" y="18" width="2.08" height="2.08" fill="#e7b53f"/>
<rect x="13" y="18" width="2.08" height="2.08" fill="#e7b53f"/>
<rect x="15" y="18" width="2.08" height="2.08" fill="#e7b53f"/>
<rect x="17" y="18" width="2.08" height="2.08" fill="#e7b53f"/>
<rect x="19" y="18" width="2.08" height="2.08" fill="#e7b53f"/>
<rect x="21" y="18" width="2.08" height="2.08" fill="#e7b53f"/>
<rect x="23" y="18" width="2.08" height="2.08" fill="#e7b53f"/>
<rect x="11" y="20" width="2.08" height="2.08" fill="#e7b53f"/>
<rect x="13" y="20" width="2.08" height="2.08" fill="#e7b53f"/>
<rect x="15" y="20" width="2.08" height="2.08" fill="#e7b53f"/>
<rect x="17" y="20" width="2.08" height="2.08" fill="#e7b53f"/>
<rect x="19" y="20" width="2.08" height="2.08" fill="#e7b53f"/>
<rect x="21" y="20" width="2.08" height="2.08" fill="#e7b53f"/>
<rect x="23" y="20" width="2.08" height="2.08" fill="#e7b53f"/>
<rect x="25" y="20" width="2.08" height="2.08" fill="#e7b53f"/>
<rect x="11" y="22" width="2.08" height="2.08" fill="#e7b53f"/>
<rect x="13" y="22" width="2.08" height="2.08" fill="#e7b53f"/>
<rect x="19" y="22" width="2.08" height="2.08" fill="#e7b53f"/>
<rect x="21" y="22" width="2.08" height="2.08" fill="#e7b53f"/>
<rect x="23" y="22" width="2.08" height="2.08" fill="#e7b53f"/>
<rect x="25" y="22" width="2.08" height="2.08" fill="#e7b53f"/>
<rect x="27" y="22" width="2.08" height="2.08" fill="#e7b53f"/>
<rect x="21" y="24" width="2.08" height="2.08" fill="#e7b53f"/>
<rect x="23" y="24" width="2.08" height="2.08" fill="#e7b53f"/>
<rect x="25" y="24" width="2.08" height="2.08" fill="#e7b53f"/>
<rect x="27" y="24" width="2.08" height="2.08" fill="#e7b53f"/>
<rect x="29" y="24" width="2.08" height="2.08" fill="#e7b53f"/>
<rect x="23" y="26" width="2.08" height="2.08" fill="#e7b53f"/>
<rect x="25" y="26" width="2.08" height="2.08" fill="#e7b53f"/>
<rect x="27" y="26" width="2.08" height="2.08" fill="#e7b53f"/>
<rect x="29" y="26" width="2.08" height="2.08" fill="#e7b53f"/>
<rect x="31" y="26" width="2.08" height="2.08" fill="#e7b53f"/>
<rect x="25" y="28" width="2.08" height="2.08" fill="#e7b53f"/>
<rect x="27" y="28" width="2.08" height="2.08" fill="#e7b53f"/>
<rect x="29" y="28" width="2.08" height="2.08" fill="#e7b53f"/>
<rect x="31" y="28" width="2.08" height="2.08" fill="#e7b53f"/>
<rect x="33" y="28" width="2.08" height="2.08" fill="#e7b53f"/>
<rect x="27" y="30" width="2.08" height="2.08" fill="#e7b53f"/>
<rect x="29" y="30" width="2.08" height="2.08" fill="#e7b53f"/>
<rect x="31" y="30" width="2.08" height="2.08" fill="#e7b53f"/>
<rect x="33" y="30" width="2.08" height="2.08" fill="#e7b53f"/>
<rect x="35" y="30" width="2.08" height="2.08" fill="#e7b53f"/>
<rect x="29" y="32" width="2.08" height="2.08" fill="#e7b53f"/>
<rect x="31" y="32" width="2.08" height="2.08" fill="#e7b53f"/>
<rect x="33" y="32" width="2.08" height="2.08" fill="#e7b53f"/>
<rect x="35" y="32" width="2.08" height="2.08" fill="#e7b53f"/>
<rect x="37" y="32" width="2.08" height="2.08" fill="#e7b53f"/>
<rect x="31" y="34" width="2.08" height="2.08" fill="#e7b53f"/>
<rect x="33" y="34" width="2.08" height="2.08" fill="#e7b53f"/>
<rect x="35" y="34" width="2.08" height="2.08" fill="#e7b53f"/>
<rect x="37" y="34" width="2.08" height="2.08" fill="#e7b53f"/>
<rect x="33" y="36" width="2.08" height="2.08" fill="#e7b53f"/>
<rect x="35" y="36" width="2.08" height="2.08" fill="#e7b53f"/>
<rect x="37" y="36" width="2.08" height="2.08" fill="#e7b53f"/>
<rect x="39" y="36" width="2.08" height="2.08" fill="#e7b53f"/>
<rect x="37" y="38" width="2.08" height="2.08" fill="#e7b53f"/>
<rect x="39" y="38" width="2.08" height="2.08" fill="#e7b53f"/>
<rect x="41" y="38" width="2.08" height="2.08" fill="#e7b53f"/>
<rect x="43" y="38" width="2.08" height="2.08" fill="#b07f2c"/>
<rect x="45" y="38" width="2.08" height="2.08" fill="#b07f2c"/>
<rect x="47" y="38" width="2.08" height="2.08" fill="#b07f2c"/>
<rect x="49" y="38" width="2.08" height="2.08" fill="#b07f2c"/>
<rect x="51" y="38" width="2.08" height="2.08" fill="#b07f2c"/>
<rect x="53" y="38" width="2.08" height="2.08" fill="#b07f2c"/>
<rect x="55" y="38" width="2.08" height="2.08" fill="#b07f2c"/>
<rect x="39" y="40" width="2.08" height="2.08" fill="#e7b53f"/>
<rect x="41" y="40" width="2.08" height="2.08" fill="#e7b53f"/>
<rect x="43" y="40" width="2.08" height="2.08" fill="#e7b53f"/>
<rect x="47" y="40" width="2.08" height="2.08" fill="#b07f2c"/>
<rect x="49" y="40" width="2.08" height="2.08" fill="#b07f2c"/>
<rect x="51" y="40" width="2.08" height="2.08" fill="#b07f2c"/>
<rect x="53" y="40" width="2.08" height="2.08" fill="#b07f2c"/>
<rect x="39" y="42" width="2.08" height="2.08" fill="#b07f2c"/>
<rect x="41" y="42" width="2.08" height="2.08" fill="#e7b53f"/>
<rect x="43" y="42" width="2.08" height="2.08" fill="#e7b53f"/>
<rect x="45" y="42" width="2.08" height="2.08" fill="#e7b53f"/>
<rect x="39" y="44" width="2.08" height="2.08" fill="#b07f2c"/>
<rect x="43" y="44" width="2.08" height="2.08" fill="#e7b53f"/>
<rect x="45" y="44" width="2.08" height="2.08" fill="#e7b53f"/>
<rect x="47" y="44" width="2.08" height="2.08" fill="#e7b53f"/>
<rect x="39" y="46" width="2.08" height="2.08" fill="#b07f2c"/>
<rect x="41" y="46" width="2.08" height="2.08" fill="#b07f2c"/>
<rect x="45" y="46" width="2.08" height="2.08" fill="#e7b53f"/>
<rect x="47" y="46" width="2.08" height="2.08" fill="#e7b53f"/>
<rect x="39" y="48" width="2.08" height="2.08" fill="#b07f2c"/>
<rect x="41" y="48" width="2.08" height="2.08" fill="#b07f2c"/>
<rect x="39" y="50" width="2.08" height="2.08" fill="#b07f2c"/>
<rect x="41" y="50" width="2.08" height="2.08" fill="#b07f2c"/>
<rect x="39" y="52" width="2.08" height="2.08" fill="#b07f2c"/>
<rect x="41" y="52" width="2.08" height="2.08" fill="#b07f2c"/>
<rect x="39" y="54" width="2.08" height="2.08" fill="#b07f2c"/>
</g>
</svg>
