<svg xmlns="http://www.w3.org/2000/svg" viewBox="0 0 96 96" width="96" height="96" role="img" aria-label="CUPIDS Lab">
<metadata>CUPIDS Lab — generated from _data/brand.yml. A brand and graphic identity for an academic public interest data lab. A black terminal with monospace fonts and syntax initially feels intimidating and cold. A near-black canvas, CU gold accents, an IBM Plex Mono "cupids-lab" wordmark. The recurring Cupid idiom is a "heart with arrow" drawn as 8-bit pixel art — a retro, terminal / coding-agent nod rather than the proprietary emoji. The Unicode "color heart" palette still provides variation in the decorative art, and the ASCII heart "&lt;3" lives on as playful microcopy. Restrained and civic with a little matchmaker playfulness.</metadata>
<g shape-rendering="crispEdges">
<rect x="18.76" y="6.72" width="3.58" height="3.58" fill="#f06fa0"/>
<rect x="22.2" y="6.72" width="3.58" height="3.58" fill="#f06fa0"/>
<rect x="25.64" y="6.72" width="3.58" height="3.58" fill="#f06fa0"/>
<rect x="29.08" y="6.72" width="3.58" height="3.58" fill="#f06fa0"/>
<rect x="32.52" y="6.72" width="3.58" height="3.58" fill="#f06fa0"/>
<rect x="35.96" y="6.72" width="3.58" height="3.58" fill="#f06fa0"/>
<rect x="53.16" y="6.72" width="3.58" height="3.58" fill="#f06fa0"/>
<rect x="56.6" y="6.72" width="3.58" height="3.58" fill="#f06fa0"/>
<rect x="60.04" y="6.72" width="3.58" height="3.58" fill="#f06fa0"/>
<rect x="63.48" y="6.72" width="3.58" height="3.58" fill="#f06fa0"/>
<rect x="66.92" y="6.72" width="3.58" height="3.58" fill="#f06fa0"/>
<rect x="70.36" y="6.72" width="3.58" height="3.58" fill="#f06fa0"/>
<rect x="11.88" y="10.16" width="3.58" height="3.58" fill="#f06fa0"/>
<rect x="15.32" y="10.16" width="3.58" height="3.58" fill="#f06fa0"/>
<rect x="18.76" y="10.16" width="3.58" height="3.58" fill="#f06fa0"/>
<rect x="22.2" y="10.16" width="3.58" height="3.58" fill="#f06fa0"/>
<rect x="25.64" y="10.16" width="3.58" height="3.58" fill="#f06fa0"/>
<rect x="29.08" y="10.16" width="3.58" height="3.58" fill="#f06fa0"/>
<rect x="32.52" y="10.16" width="3.58" height="3.58" fill="#f06fa0"/>
<rect x="35.96" y="10.16" width="3.58" height="3.58" fill="#f06fa0"/>
<rect x="39.4" y="10.16" width="3.58" height="3.58" fill="#f06fa0"/>
<rect x="49.72" y="10.16" width="3.58" height="3.58" fill="#f06fa0"/>
<rect x="53.16" y="10.16" width="3.58" height="3.58" fill="#f06fa0"/>
<rect x="56.6" y="10.16" width="3.58" height="3.58" fill="#f06fa0"/>
<rect x="60.04" y="10.16" width="3.58" height="3.58" fill="#f06fa0"/>
<rect x="63.48" y="10.16" width="3.58" height="3.58" fill="#f06fa0"/>
<rect x="66.92" y="10.16" width="3.58" height="3.58" fill="#f06fa0"/>
<rect x="70.36" y="10.16" width="3.58" height="3.58" fill="#f06fa0"/>
<rect x="73.8" y="10.16" width="3.58" height="3.58" fill="#f06fa0"/>
<rect x="77.24" y="10.16" width="3.58" height="3.58" fill="#f06fa0"/>
<rect x="11.88" y="13.6" width="3.58" height="3.58" fill="#f06fa0"/>
<rect x="15.32" y="13.6" width="3.58" height="3.58" fill="#f06fa0"/>
<rect x="18.76" y="13.6" width="3.58" height="3.58" fill="#f06fa0"/>
<rect x="22.2" y="13.6" width="3.58" height="3.58" fill="#f06fa0"/>
<rect x="25.64" y="13.6" width="3.58" height="3.58" fill="#f06fa0"/>
<rect x="29.08" y="13.6" width="3.58" height="3.58" fill="#f06fa0"/>
<rect x="32.52" y="13.6" width="3.58" height="3.58" fill="#f06fa0"/>
<rect x="35.96" y="13.6" width="3.58" height="3.58" fill="#f06fa0"/>
<rect x="39.4" y="13.6" width="3.58" height="3.58" fill="#f06fa0"/>
<rect x="42.84" y="13.6" width="3.58" height="3.58" fill="#f06fa0"/>
<rect x="46.28" y="13.6" width="3.58" height="3.58" fill="#f06fa0"/>
<rect x="49.72" y="13.6" width="3.58" height="3.58" fill="#f06fa0"/>
<rect x="53.16" y="13.6" width="3.58" height="3.58" fill="#f06fa0"/>
<rect x="56.6" y="13.6" width="3.58" height="3.58" fill="#f06fa0"/>
<rect x="60.04" y="13.6" width="3.58" height="3.58" fill="#f06fa0"/>
<rect x="63.48" y="13.6" width="3.58" height="3.58" fill="#f06fa0"/>
<rect x="66.92" y="13.6" width="3.58" height="3.58" fill="#f06fa0"/>
<rect x="70.36" y="13.6" width="3.58" height="3.58" fill="#f06fa0"/>
<rect x="73.8" y="13.6" width="3.58" height="3.58" fill="#f06fa0"/>
<rect x="77.24" y="13.6" width="3.58" height="3.58" fill="#c44f86"/>
<rect x="8.44" y="17.04" width="3.58" height="3.58" fill="#f06fa0"/>
<rect x="11.88" y="17.04" width="3.58" height="3.58" fill="#f06fa0"/>
<rect x="15.32" y="17.04" width="3.58" height="3.58" fill="#f06fa0"/>
<rect x="18.76" y="17.04" width="3.58" height="3.58" fill="#f06fa0"/>
<rect x="22.2" y="17.04" width="3.58" height="3.58" fill="#f06fa0"/>
<rect x="25.64" y="17.04" width="3.58" height="3.58" fill="#f06fa0"/>
<rect x="29.08" y="17.04" width="3.58" height="3.58" fill="#f06fa0"/>
<rect x="32.52" y="17.04" width="3.58" height="3.58" fill="#f06fa0"/>
<rect x="35.96" y="17.04" width="3.58" height="3.58" fill="#f06fa0"/>
<rect x="39.4" y="17.04" width="3.58" height="3.58" fill="#f06fa0"/>
<rect x="42.84" y="17.04" width="3.58" height="3.58" fill="#f06fa0"/>
<rect x="46.28" y="17.04" width="3.58" height="3.58" fill="#f06fa0"/>
<rect x="49.72" y="17.04" width="3.58" height="3.58" fill="#f06fa0"/>
<rect x="53.16" y="17.04" width="3.58" height="3.58" fill="#ffb3d1"/>
<rect x="56.6" y="17.04" width="3.58" height="3.58" fill="#ffb3d1"/>
<rect x="60.04" y="17.04" width="3.58" height="3.58" fill="#ffb3d1"/>
<rect x="63.48" y="17.04" width="3.58" height="3.58" fill="#ffb3d1"/>
<rect x="66.92" y="17.04" width="3.58" height="3.58" fill="#f06fa0"/>
<rect x="70.36" y="17.04" width="3.58" height="3.58" fill="#f06fa0"/>
<rect x="73.8" y="17.04" width="3.58" height="3.58" fill="#f06fa0"/>
<rect x="77.24" y="17.04" width="3.58" height="3.58" fill="#f06fa0"/>
<rect x="80.68" y="17.04" width="3.58" height="3.58" fill="#c44f86"/>
<rect x="8.44" y="20.48" width="3.58" height="3.58" fill="#f06fa0"/>
<rect x="11.88" y="20.48" width="3.58" height="3.58" fill="#f06fa0"/>
<rect x="15.32" y="20.48" width="3.58" height="3.58" fill="#f06fa0"/>
<rect x="18.76" y="20.48" width="3.58" height="3.58" fill="#f06fa0"/>
<rect x="22.2" y="20.48" width="3.58" height="3.58" fill="#f06fa0"/>
<rect x="25.64" y="20.48" width="3.58" height="3.58" fill="#f06fa0"/>
<rect x="29.08" y="20.48" width="3.58" height="3.58" fill="#f06fa0"/>
<rect x="32.52" y="20.48" width="3.58" height="3.58" fill="#f06fa0"/>
<rect x="35.96" y="20.48" width="3.58" height="3.58" fill="#f06fa0"/>
<rect x="39.4" y="20.48" width="3.58" height="3.58" fill="#f06fa0"/>
<rect x="42.84" y="20.48" width="3.58" height="3.58" fill="#f06fa0"/>
<rect x="46.28" y="20.48" width="3.58" height="3.58" fill="#f06fa0"/>
<rect x="49.72" y="20.48" width="3.58" height="3.58" fill="#ffb3d1"/>
<rect x="53.16" y="20.48" width="3.58" height="3.58" fill="#ffb3d1"/>
<rect x="56.6" y="20.48" width="3.58" height="3.58" fill="#ffb3d1"/>
<rect x="60.04" y="20.48" width="3.58" height="3.58" fill="#ffb3d1"/>
<rect x="63.48" y="20.48" width="3.58" height="3.58" fill="#ffb3d1"/>
<rect x="66.92" y="20.48" width="3.58" height="3.58" fill="#ffb3d1"/>
<rect x="70.36" y="20.48" width="3.58" height="3.58" fill="#f06fa0"/>
<rect x="73.8" y="20.48" width="3.58" height="3.58" fill="#f06fa0"/>
<rect x="77.24" y="20.48" width="3.58" height="3.58" fill="#f06fa0"/>
<rect x="80.68" y="20.48" width="3.58" height="3.58" fill="#c44f86"/>
<rect x="5" y="23.92" width="3.58" height="3.58" fill="#f06fa0"/>
<rect x="8.44" y="23.92" width="3.58" height="3.58" fill="#f06fa0"/>
<rect x="11.88" y="23.92" width="3.58" height="3.58" fill="#f06fa0"/>
<rect x="15.32" y="23.92" width="3.58" height="3.58" fill="#f06fa0"/>
<rect x="18.76" y="23.92" width="3.58" height="3.58" fill="#f06fa0"/>
<rect x="22.2" y="23.92" width="3.58" height="3.58" fill="#f06fa0"/>
<rect x="25.64" y="23.92" width="3.58" height="3.58" fill="#f06fa0"/>
<rect x="29.08" y="23.92" width="3.58" height="3.58" fill="#f06fa0"/>
<rect x="32.52" y="23.92" width="3.58" height="3.58" fill="#f06fa0"/>
<rect x="35.96" y="23.92" width="3.58" height="3.58" fill="#f06fa0"/>
<rect x="39.4" y="23.92" width="3.58" height="3.58" fill="#f06fa0"/>
<rect x="42.84" y="23.92" width="3.58" height="3.58" fill="#f06fa0"/>
<rect x="46.28" y="23.92" width="3.58" height="3.58" fill="#f06fa0"/>
<rect x="49.72" y="23.92" width="3.58" height="3.58" fill="#ffb3d1"/>
<rect x="53.16" y="23.92" width="3.58" height="3.58" fill="#ffb3d1"/>
<rect x="56.6" y="23.92" width="3.58" height="3.58" fill="#ffb3d1"/>
<rect x="60.04" y="23.92" width="3.58" height="3.58" fill="#ffb3d1"/>
<rect x="63.48" y="23.92" width="3.58" height="3.58" fill="#ffb3d1"/>
<rect x="66.92" y="23.92" width="3.58" height="3.58" fill="#ffb3d1"/>
<rect x="70.36" y="23.92" width="3.58" height="3.58" fill="#f06fa0"/>
<rect x="73.8" y="23.92" width="3.58" height="3.58" fill="#f06fa0"/>
<rect x="77.24" y="23.92" width="3.58" height="3.58" fill="#f06fa0"/>
<rect x="80.68" y="23.92" width="3.58" height="3.58" fill="#f06fa0"/>
<rect x="84.12" y="23.92" width="3.58" height="3.58" fill="#c44f86"/>
<rect x="5" y="27.36" width="3.58" height="3.58" fill="#f06fa0"/>
<rect x="8.44" y="27.36" width="3.58" height="3.58" fill="#f06fa0"/>
<rect x="11.88" y="27.36" width="3.58" height="3.58" fill="#f06fa0"/>
<rect x="15.32" y="27.36" width="3.58" height="3.58" fill="#f06fa0"/>
<rect x="18.76" y="27.36" width="3.58" height="3.58" fill="#f06fa0"/>
<rect x="22.2" y="27.36" width="3.58" height="3.58" fill="#f06fa0"/>
<rect x="25.64" y="27.36" width="3.58" height="3.58" fill="#f06fa0"/>
<rect x="29.08" y="27.36" width="3.58" height="3.58" fill="#f06fa0"/>
<rect x="32.52" y="27.36" width="3.58" height="3.58" fill="#f06fa0"/>
<rect x="35.96" y="27.36" width="3.58" height="3.58" fill="#f06fa0"/>
<rect x="39.4" y="27.36" width="3.58" height="3.58" fill="#f06fa0"/>
<rect x="42.84" y="27.36" width="3.58" height="3.58" fill="#f06fa0"/>
<rect x="46.28" y="27.36" width="3.58" height="3.58" fill="#f06fa0"/>
<rect x="49.72" y="27.36" width="3.58" height="3.58" fill="#ffb3d1"/>
<rect x="53.16" y="27.36" width="3.58" height="3.58" fill="#ffb3d1"/>
<rect x="56.6" y="27.36" width="3.58" height="3.58" fill="#ffb3d1"/>
<rect x="60.04" y="27.36" width="3.58" height="3.58" fill="#ffb3d1"/>
<rect x="63.48" y="27.36" width="3.58" height="3.58" fill="#ffb3d1"/>
<rect x="66.92" y="27.36" width="3.58" height="3.58" fill="#ffb3d1"/>
<rect x="70.36" y="27.36" width="3.58" height="3.58" fill="#f06fa0"/>
<rect x="73.8" y="27.36" width="3.58" height="3.58" fill="#f06fa0"/>
<rect x="77.24" y="27.36" width="3.58" height="3.58" fill="#f06fa0"/>
<rect x="80.68" y="27.36" width="3.58" height="3.58" fill="#f06fa0"/>
<rect x="84.12" y="27.36" width="3.58" height="3.58" fill="#c44f86"/>
<rect x="5" y="30.8" width="3.58" height="3.58" fill="#f06fa0"/>
<rect x="8.44" y="30.8" width="3.58" height="3.58" fill="#f06fa0"/>
<rect x="11.88" y="30.8" width="3.58" height="3.58" fill="#f06fa0"/>
<rect x="15.32" y="30.8" width="3.58" height="3.58" fill="#f06fa0"/>
<rect x="18.76" y="30.8" width="3.58" height="3.58" fill="#f06fa0"/>
<rect x="22.2" y="30.8" width="3.58" height="3.58" fill="#f06fa0"/>
<rect x="25.64" y="30.8" width="3.58" height="3.58" fill="#f06fa0"/>
<rect x="29.08" y="30.8" width="3.58" height="3.58" fill="#f06fa0"/>
<rect x="32.52" y="30.8" width="3.58" height="3.58" fill="#f06fa0"/>
<rect x="35.96" y="30.8" width="3.58" height="3.58" fill="#f06fa0"/>
<rect x="39.4" y="30.8" width="3.58" height="3.58" fill="#f06fa0"/>
<rect x="42.84" y="30.8" width="3.58" height="3.58" fill="#f06fa0"/>
<rect x="46.28" y="30.8" width="3.58" height="3.58" fill="#f06fa0"/>
<rect x="49.72" y="30.8" width="3.58" height="3.58" fill="#ffb3d1"/>
<rect x="53.16" y="30.8" width="3.58" height="3.58" fill="#ffb3d1"/>
<rect x="56.6" y="30.8" width="3.58" height="3.58" fill="#ffb3d1"/>
<rect x="60.04" y="30.8" width="3.58" height="3.58" fill="#ffb3d1"/>
<rect x="63.48" y="30.8" width="3.58" height="3.58" fill="#ffb3d1"/>
<rect x="66.92" y="30.8" width="3.58" height="3.58" fill="#ffb3d1"/>
<rect x="70.36" y="30.8" width="3.58" height="3.58" fill="#f06fa0"/>
<rect x="73.8" y="30.8" width="3.58" height="3.58" fill="#f06fa0"/>
<rect x="77.24" y="30.8" width="3.58" height="3.58" fill="#f06fa0"/>
<rect x="80.68" y="30.8" width="3.58" height="3.58" fill="#f06fa0"/>
<rect x="84.12" y="30.8" width="3.58" height="3.58" fill="#c44f86"/>
<rect x="5" y="34.24" width="3.58" height="3.58" fill="#f06fa0"/>
<rect x="8.44" y="34.24" width="3.58" height="3.58" fill="#f06fa0"/>
<rect x="11.88" y="34.24" width="3.58" height="3.58" fill="#f06fa0"/>
<rect x="15.32" y="34.24" width="3.58" height="3.58" fill="#f06fa0"/>
<rect x="18.76" y="34.24" width="3.58" height="3.58" fill="#f06fa0"/>
<rect x="22.2" y="34.24" width="3.58" height="3.58" fill="#f06fa0"/>
<rect x="25.64" y="34.24" width="3.58" height="3.58" fill="#f06fa0"/>
<rect x="29.08" y="34.24" width="3.58" height="3.58" fill="#f06fa0"/>
<rect x="32.52" y="34.24" width="3.58" height="3.58" fill="#f06fa0"/>
<rect x="35.96" y="34.24" width="3.58" height="3.58" fill="#f06fa0"/>
<rect x="39.4" y="34.24" width="3.58" height="3.58" fill="#f06fa0"/>
<rect x="42.84" y="34.24" width="3.58" height="3.58" fill="#f06fa0"/>
<rect x="46.28" y="34.24" width="3.58" height="3.58" fill="#f06fa0"/>
<rect x="49.72" y="34.24" width="3.58" height="3.58" fill="#f06fa0"/>
<rect x="53.16" y="34.24" width="3.58" height="3.58" fill="#ffb3d1"/>
<rect x="56.6" y="34.24" width="3.58" height="3.58" fill="#ffb3d1"/>
<rect x="60.04" y="34.24" width="3.58" height="3.58" fill="#ffb3d1"/>
<rect x="63.48" y="34.24" width="3.58" height="3.58" fill="#ffb3d1"/>
<rect x="66.92" y="34.24" width="3.58" height="3.58" fill="#f06fa0"/>
<rect x="70.36" y="34.24" width="3.58" height="3.58" fill="#f06fa0"/>
<rect x="73.8" y="34.24" width="3.58" height="3.58" fill="#f06fa0"/>
<rect x="77.24" y="34.24" width="3.58" height="3.58" fill="#f06fa0"/>
<rect x="80.68" y="34.24" width="3.58" height="3.58" fill="#f06fa0"/>
<rect x="84.12" y="34.24" width="3.58" height="3.58" fill="#c44f86"/>
<rect x="5" y="37.68" width="3.58" height="3.58" fill="#f06fa0"/>
<rect x="8.44" y="37.68" width="3.58" height="3.58" fill="#f06fa0"/>
<rect x="11.88" y="37.68" width="3.58" height="3.58" fill="#f06fa0"/>
<rect x="15.32" y="37.68" width="3.58" height="3.58" fill="#f06fa0"/>
<rect x="18.76" y="37.68" width="3.58" height="3.58" fill="#f06fa0"/>
<rect x="22.2" y="37.68" width="3.58" height="3.58" fill="#f06fa0"/>
<rect x="25.64" y="37.68" width="3.58" height="3.58" fill="#f06fa0"/>
<rect x="29.08" y="37.68" width="3.58" height="3.58" fill="#f06fa0"/>
<rect x="32.52" y="37.68" width="3.58" height="3.58" fill="#f06fa0"/>
<rect x="35.96" y="37.68" width="3.58" height="3.58" fill="#f06fa0"/>
<rect x="39.4" y="37.68" width="3.58" height="3.58" fill="#f06fa0"/>
<rect x="42.84" y="37.68" width="3.58" height="3.58" fill="#f06fa0"/>
<rect x="46.28" y="37.68" width="3.58" height="3.58" fill="#f06fa0"/>
<rect x="49.72" y="37.68" width="3.58" height="3.58" fill="#f06fa0"/>
<rect x="53.16" y="37.68" width="3.58" height="3.58" fill="#f06fa0"/>
<rect x="56.6" y="37.68" width="3.58" height="3.58" fill="#f06fa0"/>
<rect x="60.04" y="37.68" width="3.58" height="3.58" fill="#f06fa0"/>
<rect x="63.48" y="37.68" width="3.58" height="3.58" fill="#f06fa0"/>
<rect x="66.92" y="37.68" width="3.58" height="3.58" fill="#f06fa0"/>
<rect x="70.36" y="37.68" width="3.58" height="3.58" fill="#f06fa0"/>
<rect x="73.8" y="37.68" width="3.58" height="3.58" fill="#f06fa0"/>
<rect x="77.24" y="37.68" width="3.58" height="3.58" fill="#f06fa0"/>
<rect x="80.68" y="37.68" width="3.58" height="3.58" fill="#f06fa0"/>
<rect x="84.12" y="37.68" width="3.58" height="3.58" fill="#c44f86"/>
<rect x="8.44" y="41.12" width="3.58" height="3.58" fill="#f06fa0"/>
<rect x="11.88" y="41.12" width="3.58" height="3.58" fill="#f06fa0"/>
<rect x="15.32" y="41.12" width="3.58" height="3.58" fill="#f06fa0"/>
<rect x="18.76" y="41.12" width="3.58" height="3.58" fill="#f06fa0"/>
<rect x="22.2" y="41.12" width="3.58" height="3.58" fill="#f06fa0"/>
<rect x="25.64" y="41.12" width="3.58" height="3.58" fill="#f06fa0"/>
<rect x="29.08" y="41.12" width="3.58" height="3.58" fill="#f06fa0"/>
<rect x="32.52" y="41.12" width="3.58" height="3.58" fill="#f06fa0"/>
<rect x="35.96" y="41.12" width="3.58" height="3.58" fill="#f06fa0"/>
<rect x="39.4" y="41.12" width="3.58" height="3.58" fill="#f06fa0"/>
<rect x="42.84" y="41.12" width="3.58" height="3.58" fill="#f06fa0"/>
<rect x="46.28" y="41.12" width="3.58" height="3.58" fill="#f06fa0"/>
<rect x="49.72" y="41.12" width="3.58" height="3.58" fill="#f06fa0"/>
<rect x="53.16" y="41.12" width="3.58" height="3.58" fill="#f06fa0"/>
<rect x="56.6" y="41.12" width="3.58" height="3.58" fill="#f06fa0"/>
<rect x="60.04" y="41.12" width="3.58" height="3.58" fill="#f06fa0"/>
<rect x="63.48" y="41.12" width="3.58" height="3.58" fill="#f06fa0"/>
<rect x="66.92" y="41.12" width="3.58" height="3.58" fill="#f06fa0"/>
<rect x="70.36" y="41.12" width="3.58" height="3.58" fill="#f06fa0"/>
<rect x="73.8" y="41.12" width="3.58" height="3.58" fill="#f06fa0"/>
<rect x="77.24" y="41.12" width="3.58" height="3.58" fill="#f06fa0"/>
<rect x="80.68" y="41.12" width="3.58" height="3.58" fill="#c44f86"/>
<rect x="8.44" y="44.56" width="3.58" height="3.58" fill="#f06fa0"/>
<rect x="11.88" y="44.56" width="3.58" height="3.58" fill="#f06fa0"/>
<rect x="15.32" y="44.56" width="3.58" height="3.58" fill="#f06fa0"/>
<rect x="18.76" y="44.56" width="3.58" height="3.58" fill="#f06fa0"/>
<rect x="22.2" y="44.56" width="3.58" height="3.58" fill="#f06fa0"/>
<rect x="25.64" y="44.56" width="3.58" height="3.58" fill="#f06fa0"/>
<rect x="29.08" y="44.56" width="3.58" height="3.58" fill="#f06fa0"/>
<rect x="32.52" y="44.56" width="3.58" height="3.58" fill="#f06fa0"/>
<rect x="35.96" y="44.56" width="3.58" height="3.58" fill="#f06fa0"/>
<rect x="39.4" y="44.56" width="3.58" height="3.58" fill="#f06fa0"/>
<rect x="42.84" y="44.56" width="3.58" height="3.58" fill="#f06fa0"/>
<rect x="46.28" y="44.56" width="3.58" height="3.58" fill="#f06fa0"/>
<rect x="49.72" y="44.56" width="3.58" height="3.58" fill="#f06fa0"/>
<rect x="53.16" y="44.56" width="3.58" height="3.58" fill="#f06fa0"/>
<rect x="56.6" y="44.56" width="3.58" height="3.58" fill="#f06fa0"/>
<rect x="60.04" y="44.56" width="3.58" height="3.58" fill="#f06fa0"/>
<rect x="63.48" y="44.56" width="3.58" height="3.58" fill="#f06fa0"/>
<rect x="66.92" y="44.56" width="3.58" height="3.58" fill="#f06fa0"/>
<rect x="70.36" y="44.56" width="3.58" height="3.58" fill="#f06fa0"/>
<rect x="73.8" y="44.56" width="3.58" height="3.58" fill="#f06fa0"/>
<rect x="77.24" y="44.56" width="3.58" height="3.58" fill="#f06fa0"/>
<rect x="80.68" y="44.56" width="3.58" height="3.58" fill="#c44f86"/>
<rect x="8.44" y="48" width="3.58" height="3.58" fill="#f06fa0"/>
<rect x="11.88" y="48" width="3.58" height="3.58" fill="#f06fa0"/>
<rect x="15.32" y="48" width="3.58" height="3.58" fill="#f06fa0"/>
<rect x="18.76" y="48" width="3.58" height="3.58" fill="#f06fa0"/>
<rect x="22.2" y="48" width="3.58" height="3.58" fill="#f06fa0"/>
<rect x="25.64" y="48" width="3.58" height="3.58" fill="#f06fa0"/>
<rect x="29.08" y="48" width="3.58" height="3.58" fill="#f06fa0"/>
<rect x="32.52" y="48" width="3.58" height="3.58" fill="#f06fa0"/>
<rect x="35.96" y="48" width="3.58" height="3.58" fill="#f06fa0"/>
<rect x="39.4" y="48" width="3.58" height="3.58" fill="#f06fa0"/>
<rect x="42.84" y="48" width="3.58" height="3.58" fill="#f06fa0"/>
<rect x="46.28" y="48" width="3.58" height="3.58" fill="#f06fa0"/>
<rect x="49.72" y="48" width="3.58" height="3.58" fill="#f06fa0"/>
<rect x="53.16" y="48" width="3.58" height="3.58" fill="#f06fa0"/>
<rect x="56.6" y="48" width="3.58" height="3.58" fill="#f06fa0"/>
<rect x="60.04" y="48" width="3.58" height="3.58" fill="#f06fa0"/>
<rect x="63.48" y="48" width="3.58" height="3.58" fill="#f06fa0"/>
<rect x="66.92" y="48" width="3.58" height="3.58" fill="#f06fa0"/>
<rect x="70.36" y="48" width="3.58" height="3.58" fill="#f06fa0"/>
<rect x="73.8" y="48" width="3.58" height="3.58" fill="#f06fa0"/>
<rect x="77.24" y="48" width="3.58" height="3.58" fill="#f06fa0"/>
<rect x="80.68" y="48" width="3.58" height="3.58" fill="#c44f86"/>
<rect x="11.88" y="51.44" width="3.58" height="3.58" fill="#f06fa0"/>
<rect x="15.32" y="51.44" width="3.58" height="3.58" fill="#f06fa0"/>
<rect x="18.76" y="51.44" width="3.58" height="3.58" fill="#f06fa0"/>
<rect x="22.2" y="51.44" width="3.58" height="3.58" fill="#f06fa0"/>
<rect x="25.64" y="51.44" width="3.58" height="3.58" fill="#f06fa0"/>
<rect x="29.08" y="51.44" width="3.58" height="3.58" fill="#f06fa0"/>
<rect x="32.52" y="51.44" width="3.58" height="3.58" fill="#f06fa0"/>
<rect x="35.96" y="51.44" width="3.58" height="3.58" fill="#f06fa0"/>
<rect x="39.4" y="51.44" width="3.58" height="3.58" fill="#f06fa0"/>
<rect x="42.84" y="51.44" width="3.58" height="3.58" fill="#f06fa0"/>
<rect x="46.28" y="51.44" width="3.58" height="3.58" fill="#f06fa0"/>
<rect x="49.72" y="51.44" width="3.58" height="3.58" fill="#f06fa0"/>
<rect x="53.16" y="51.44" width="3.58" height="3.58" fill="#f06fa0"/>
<rect x="56.6" y="51.44" width="3.58" height="3.58" fill="#f06fa0"/>
<rect x="60.04" y="51.44" width="3.58" height="3.58" fill="#f06fa0"/>
<rect x="63.48" y="51.44" width="3.58" height="3.58" fill="#f06fa0"/>
<rect x="66.92" y="51.44" width="3.58" height="3.58" fill="#f06fa0"/>
<rect x="70.36" y="51.44" width="3.58" height="3.58" fill="#f06fa0"/>
<rect x="73.8" y="51.44" width="3.58" height="3.58" fill="#f06fa0"/>
<rect x="77.24" y="51.44" width="3.58" height="3.58" fill="#c44f86"/>
<rect x="15.32" y="54.88" width="3.58" height="3.58" fill="#f06fa0"/>
<rect x="18.76" y="54.88" width="3.58" height="3.58" fill="#f06fa0"/>
<rect x="22.2" y="54.88" width="3.58" height="3.58" fill="#f06fa0"/>
<rect x="25.64" y="54.88" width="3.58" height="3.58" fill="#f06fa0"/>
<rect x="29.08" y="54.88" width="3.58" height="3.58" fill="#f06fa0"/>
<rect x="32.52" y="54.88" width="3.58" height="3.58" fill="#f06fa0"/>
<rect x="35.96" y="54.88" width="3.58" height="3.58" fill="#f06fa0"/>
<rect x="39.4" y="54.88" width="3.58" height="3.58" fill="#f06fa0"/>
<rect x="42.84" y="54.88" width="3.58" height="3.58" fill="#f06fa0"/>
<rect x="46.28" y="54.88" width="3.58" height="3.58" fill="#f06fa0"/>
<rect x="49.72" y="54.88" width="3.58" height="3.58" fill="#f06fa0"/>
<rect x="53.16" y="54.88" width="3.58" height="3.58" fill="#f06fa0"/>
<rect x="56.6" y="54.88" width="3.58" height="3.58" fill="#f06fa0"/>
<rect x="60.04" y="54.88" width="3.58" height="3.58" fill="#f06fa0"/>
<rect x="63.48" y="54.88" width="3.58" height="3.58" fill="#f06fa0"/>
<rect x="66.92" y="54.88" width="3.58" height="3.58" fill="#f06fa0"/>
<rect x="70.36" y="54.88" width="3.58" height="3.58" fill="#f06fa0"/>
<rect x="73.8" y="54.88" width="3.58" height="3.58" fill="#c44f86"/>
<rect x="15.32" y="58.32" width="3.58" height="3.58" fill="#f06fa0"/>
<rect x="18.76" y="58.32" width="3.58" height="3.58" fill="#f06fa0"/>
<rect x="22.2" y="58.32" width="3.58" height="3.58" fill="#f06fa0"/>
<rect x="25.64" y="58.32" width="3.58" height="3.58" fill="#f06fa0"/>
<rect x="29.08" y="58.32" width="3.58" height="3.58" fill="#f06fa0"/>
<rect x="32.52" y="58.32" width="3.58" height="3.58" fill="#f06fa0"/>
<rect x="35.96" y="58.32" width="3.58" height="3.58" fill="#f06fa0"/>
<rect x="39.4" y="58.32" width="3.58" height="3.58" fill="#f06fa0"/>
<rect x="42.84" y="58.32" width="3.58" height="3.58" fill="#f06fa0"/>
<rect x="46.28" y="58.32" width="3.58" height="3.58" fill="#f06fa0"/>
<rect x="49.72" y="58.32" width="3.58" height="3.58" fill="#f06fa0"/>
<rect x="53.16" y="58.32" width="3.58" height="3.58" fill="#f06fa0"/>
<rect x="56.6" y="58.32" width="3.58" height="3.58" fill="#f06fa0"/>
<rect x="60.04" y="58.32" width="3.58" height="3.58" fill="#f06fa0"/>
<rect x="63.48" y="58.32" width="3.58" height="3.58" fill="#f06fa0"/>
<rect x="66.92" y="58.32" width="3.58" height="3.58" fill="#f06fa0"/>
<rect x="70.36" y="58.32" width="3.58" height="3.58" fill="#f06fa0"/>
<rect x="73.8" y="58.32" width="3.58" height="3.58" fill="#c44f86"/>
<rect x="18.76" y="61.76" width="3.58" height="3.58" fill="#f06fa0"/>
<rect x="22.2" y="61.76" width="3.58" height="3.58" fill="#f06fa0"/>
<rect x="25.64" y="61.76" width="3.58" height="3.58" fill="#f06fa0"/>
<rect x="29.08" y="61.76" width="3.58" height="3.58" fill="#f06fa0"/>
<rect x="32.52" y="61.76" width="3.58" height="3.58" fill="#f06fa0"/>
<rect x="35.96" y="61.76" width="3.58" height="3.58" fill="#f06fa0"/>
<rect x="39.4" y="61.76" width="3.58" height="3.58" fill="#f06fa0"/>
<rect x="42.84" y="61.76" width="3.58" height="3.58" fill="#f06fa0"/>
<rect x="46.28" y="61.76" width="3.58" height="3.58" fill="#f06fa0"/>
<rect x="49.72" y="61.76" width="3.58" height="3.58" fill="#f06fa0"/>
<rect x="53.16" y="61.76" width="3.58" height="3.58" fill="#f06fa0"/>
<rect x="56.6" y="61.76" width="3.58" height="3.58" fill="#f06fa0"/>
<rect x="60.04" y="61.76" width="3.58" height="3.58" fill="#f06fa0"/>
<rect x="63.48" y="61.76" width="3.58" height="3.58" fill="#f06fa0"/>
<rect x="66.92" y="61.76" width="3.58" height="3.58" fill="#f06fa0"/>
<rect x="70.36" y="61.76" width="3.58" height="3.58" fill="#c44f86"/>
<rect x="22.2" y="65.2" width="3.58" height="3.58" fill="#f06fa0"/>
<rect x="25.64" y="65.2" width="3.58" height="3.58" fill="#f06fa0"/>
<rect x="29.08" y="65.2" width="3.58" height="3.58" fill="#f06fa0"/>
<rect x="32.52" y="65.2" width="3.58" height="3.58" fill="#f06fa0"/>
<rect x="35.96" y="65.2" width="3.58" height="3.58" fill="#f06fa0"/>
<rect x="39.4" y="65.2" width="3.58" height="3.58" fill="#f06fa0"/>
<rect x="42.84" y="65.2" width="3.58" height="3.58" fill="#f06fa0"/>
<rect x="46.28" y="65.2" width="3.58" height="3.58" fill="#f06fa0"/>
<rect x="49.72" y="65.2" width="3.58" height="3.58" fill="#f06fa0"/>
<rect x="53.16" y="65.2" width="3.58" height="3.58" fill="#f06fa0"/>
<rect x="56.6" y="65.2" width="3.58" height="3.58" fill="#f06fa0"/>
<rect x="60.04" y="65.2" width="3.58" height="3.58" fill="#f06fa0"/>
<rect x="63.48" y="65.2" width="3.58" height="3.58" fill="#f06fa0"/>
<rect x="66.92" y="65.2" width="3.58" height="3.58" fill="#c44f86"/>
<rect x="25.64" y="68.64" width="3.58" height="3.58" fill="#c44f86"/>
<rect x="29.08" y="68.64" width="3.58" height="3.58" fill="#f06fa0"/>
<rect x="32.52" y="68.64" width="3.58" height="3.58" fill="#f06fa0"/>
<rect x="35.96" y="68.64" width="3.58" height="3.58" fill="#f06fa0"/>
<rect x="39.4" y="68.64" width="3.58" height="3.58" fill="#f06fa0"/>
<rect x="42.84" y="68.64" width="3.58" height="3.58" fill="#f06fa0"/>
<rect x="46.28" y="68.64" width="3.58" height="3.58" fill="#f06fa0"/>
<rect x="49.72" y="68.64" width="3.58" height="3.58" fill="#f06fa0"/>
<rect x="53.16" y="68.64" width="3.58" height="3.58" fill="#f06fa0"/>
<rect x="56.6" y="68.64" width="3.58" height="3.58" fill="#f06fa0"/>
<rect x="60.04" y="68.64" width="3.58" height="3.58" fill="#f06fa0"/>
<rect x="63.48" y="68.64" width="3.58" height="3.58" fill="#c44f86"/>
<rect x="29.08" y="72.08" width="3.58" height="3.58" fill="#c44f86"/>
<rect x="32.52" y="72.08" width="3.58" height="3.58" fill="#c44f86"/>
<rect x="35.96" y="72.08" width="3.58" height="3.58" fill="#f06fa0"/>
<rect x="39.4" y="72.08" width="3.58" height="3.58" fill="#f06fa0"/>
<rect x="42.84" y="72.08" width="3.58" height="3.58" fill="#f06fa0"/>
<rect x="46.28" y="72.08" width="3.58" height="3.58" fill="#f06fa0"/>
<rect x="49.72" y="72.08" width="3.58" height="3.58" fill="#f06fa0"/>
<rect x="53.16" y="72.08" width="3.58" height="3.58" fill="#f06fa0"/>
<rect x="56.6" y="72.08" width="3.58" height="3.58" fill="#c44f86"/>
<rect x="60.04" y="72.08" width="3.58" height="3.58" fill="#c44f86"/>
<rect x="35.96" y="75.52" width="3.58" height="3.58" fill="#c44f86"/>
<rect x="39.4" y="75.52" width="3.58" height="3.58" fill="#f06fa0"/>
<rect x="42.84" y="75.52" width="3.58" height="3.58" fill="#f06fa0"/>
<rect x="46.28" y="75.52" width="3.58" height="3.58" fill="#f06fa0"/>
<rect x="49.72" y="75.52" width="3.58" height="3.58" fill="#f06fa0"/>
<rect x="53.16" y="75.52" width="3.58" height="3.58" fill="#c44f86"/>
<rect x="39.4" y="78.96" width="3.58" height="3.58" fill="#c44f86"/>
<rect x="42.84" y="78.96" width="3.58" height="3.58" fill="#c44f86"/>
<rect x="46.28" y="78.96" width="3.58" height="3.58" fill="#c44f86"/>
<rect x="49.72" y="78.96" width="3.58" height="3.58" fill="#c44f86"/>
<rect x="8.44" y="6.72" width="3.58" height="3.58" fill="#e7b53f"/>
<rect x="11.88" y="6.72" width="3.58" height="3.58" fill="#e7b53f"/>
<rect x="15.32" y="6.72" width="3.58" height="3.58" fill="#e7b53f"/>
<rect x="8.44" y="10.16" width="3.58" height="3.58" fill="#e7b53f"/>
<rect x="11.88" y="10.16" width="3.58" height="3.58" fill="#e7b53f"/>
<rect x="15.32" y="10.16" width="3.58" height="3.58" fill="#e7b53f"/>
<rect x="18.76" y="10.16" width="3.58" height="3.58" fill="#e7b53f"/>
<rect x="22.2" y="10.16" width="3.58" height="3.58" fill="#e7b53f"/>
<rect x="25.64" y="10.16" width="3.58" height="3.58" fill="#e7b53f"/>
<rect x="29.08" y="10.16" width="3.58" height="3.58" fill="#e7b53f"/>
<rect x="32.52" y="10.16" width="3.58" height="3.58" fill="#e7b53f"/>
<rect x="8.44" y="13.6" width="3.58" height="3.58" fill="#e7b53f"/>
<rect x="11.88" y="13.6" width="3.58" height="3.58" fill="#e7b53f"/>
<rect x="15.32" y="13.6" width="3.58" height="3.58" fill="#e7b53f"/>
<rect x="18.76" y="13.6" width="3.58" height="3.58" fill="#e7b53f"/>
<rect x="22.2" y="13.6" width="3.58" height="3.58" fill="#e7b53f"/>
<rect x="25.64" y="13.6" width="3.58" height="3.58" fill="#e7b53f"/>
<rect x="29.08" y="13.6" width="3.58" height="3.58" fill="#e7b53f"/>
<rect x="32.52" y="13.6" width="3.58" height="3.58" fill="#e7b53f"/>
<rect x="11.88" y="17.04" width="3.58" height="3.58" fill="#e7b53f"/>
<rect x="15.32" y="17.04" width="3.58" height="3.58" fill="#e7b53f"/>
<rect x="18.76" y="17.04" width="3.58" height="3.58" fill="#e7b53f"/>
<rect x="22.2" y="17.04" width="3.58" height="3.58" fill="#e7b53f"/>
<rect x="25.64" y="17.04" width="3.58" height="3.58" fill="#e7b53f"/>
<rect x="29.08" y="17.04" width="3.58" height="3.58" fill="#e7b53f"/>
<rect x="11.88" y="20.48" width="3.58" height="3.58" fill="#e7b53f"/>
<rect x="15.32" y="20.48" width="3.58" height="3.58" fill="#e7b53f"/>
<rect x="18.76" y="20.48" width="3.58" height="3.58" fill="#e7b53f"/>
<rect x="22.2" y="20.48" width="3.58" height="3.58" fill="#e7b53f"/>
<rect x="25.64" y="20.48" width="3.58" height="3.58" fill="#e7b53f"/>
<rect x="29.08" y="20.48" width="3.58" height="3.58" fill="#e7b53f"/>
<rect x="11.88" y="23.92" width="3.58" height="3.58" fill="#e7b53f"/>
<rect x="15.32" y="23.92" width="3.58" height="3.58" fill="#e7b53f"/>
<rect x="18.76" y="23.92" width="3.58" height="3.58" fill="#e7b53f"/>
<rect x="22.2" y="23.92" width="3.58" height="3.58" fill="#e7b53f"/>
<rect x="25.64" y="23.92" width="3.58" height="3.58" fill="#e7b53f"/>
<rect x="29.08" y="23.92" width="3.58" height="3.58" fill="#e7b53f"/>
<rect x="32.52" y="23.92" width="3.58" height="3.58" fill="#e7b53f"/>
<rect x="11.88" y="27.36" width="3.58" height="3.58" fill="#e7b53f"/>
<rect x="15.32" y="27.36" width="3.58" height="3.58" fill="#e7b53f"/>
<rect x="18.76" y="27.36" width="3.58" height="3.58" fill="#e7b53f"/>
<rect x="22.2" y="27.36" width="3.58" height="3.58" fill="#e7b53f"/>
<rect x="25.64" y="27.36" width="3.58" height="3.58" fill="#e7b53f"/>
<rect x="29.08" y="27.36" width="3.58" height="3.58" fill="#e7b53f"/>
<rect x="32.52" y="27.36" width="3.58" height="3.58" fill="#e7b53f"/>
<rect x="35.96" y="27.36" width="3.58" height="3.58" fill="#e7b53f"/>
<rect x="11.88" y="30.8" width="3.58" height="3.58" fill="#e7b53f"/>
<rect x="15.32" y="30.8" width="3.58" height="3.58" fill="#e7b53f"/>
<rect x="25.64" y="30.8" width="3.58" height="3.58" fill="#e7b53f"/>
<rect x="29.08" y="30.8" width="3.58" height="3.58" fill="#e7b53f"/>
<rect x="32.52" y="30.8" width="3.58" height="3.58" fill="#e7b53f"/>
<rect x="35.96" y="30.8" width="3.58" height="3.58" fill="#e7b53f"/>
<rect x="39.4" y="30.8" width="3.58" height="3.58" fill="#e7b53f"/>
<rect x="29.08" y="34.24" width="3.58" height="3.58" fill="#e7b53f"/>
<rect x="32.52" y="34.24" width="3.58" height="3.58" fill="#e7b53f"/>
<rect x="35.96" y="34.24" width="3.58" height="3.58" fill="#e7b53f"/>
<rect x="39.4" y="34.24" width="3.58" height="3.58" fill="#e7b53f"/>
<rect x="42.84" y="34.24" width="3.58" height="3.58" fill="#e7b53f"/>
<rect x="32.52" y="37.68" width="3.58" height="3.58" fill="#e7b53f"/>
<rect x="35.96" y="37.68" width="3.58" height="3.58" fill="#e7b53f"/>
<rect x="39.4" y="37.68" width="3.58" height="3.58" fill="#e7b53f"/>
<rect x="42.84" y="37.68" width="3.58" height="3.58" fill="#e7b53f"/>
<rect x="46.28" y="37.68" width="3.58" height="3.58" fill="#e7b53f"/>
<rect x="35.96" y="41.12" width="3.58" height="3.58" fill="#e7b53f"/>
<rect x="39.4" y="41.12" width="3.58" height="3.58" fill="#e7b53f"/>
<rect x="42.84" y="41.12" width="3.58" height="3.58" fill="#e7b53f"/>
<rect x="46.28" y="41.12" width="3.58" height="3.58" fill="#e7b53f"/>
<rect x="49.72" y="41.12" width="3.58" height="3.58" fill="#e7b53f"/>
<rect x="39.4" y="44.56" width="3.58" height="3.58" fill="#e7b53f"/>
<rect x="42.84" y="44.56" width="3.58" height="3.58" fill="#e7b53f"/>
<rect x="46.28" y="44.56" width="3.58" height="3.58" fill="#e7b53f"/>
<rect x="49.72" y="44.56" width="3.58" height="3.58" fill="#e7b53f"/>
<rect x="53.16" y="44.56" width="3.58" height="3.58" fill="#e7b53f"/>
<rect x="42.84" y="48" width="3.58" height="3.58" fill="#e7b53f"/>
<rect x="46.28" y="48" width="3.58" height="3.58" fill="#e7b53f"/>
<rect x="49.72" y="48" width="3.58" height="3.58" fill="#e7b53f"/>
<rect x="53.16" y="48" width="3.58" height="3.58" fill="#e7b53f"/>
<rect x="56.6" y="48" width="3.58" height="3.58" fill="#e7b53f"/>
<rect x="46.28" y="51.44" width="3.58" height="3.58" fill="#e7b53f"/>
<rect x="49.72" y="51.44" width="3.58" height="3.58" fill="#e7b53f"/>
<rect x="53.16" y="51.44" width="3.58" height="3.58" fill="#e7b53f"/>
<rect x="56.6" y="51.44" width="3.58" height="3.58" fill="#e7b53f"/>
<rect x="49.72" y="54.88" width="3.58" height="3.58" fill="#e7b53f"/>
<rect x="53.16" y="54.88" width="3.58" height="3.58" fill="#e7b53f"/>
<rect x="56.6" y="54.88" width="3.58" height="3.58" fill="#e7b53f"/>
<rect x="60.04" y="54.88" width="3.58" height="3.58" fill="#e7b53f"/>
<rect x="56.6" y="58.32" width="3.58" height="3.58" fill="#e7b53f"/>
<rect x="60.04" y="58.32" width="3.58" height="3.58" fill="#e7b53f"/>
<rect x="63.48" y="58.32" width="3.58" height="3.58" fill="#e7b53f"/>
<rect x="66.92" y="58.32" width="3.58" height="3.58" fill="#b07f2c"/>
<rect x="70.36" y="58.32" width="3.58" height="3.58" fill="#b07f2c"/>
<rect x="73.8" y="58.32" width="3.58" height="3.58" fill="#b07f2c"/>
<rect x="77.24" y="58.32" width="3.58" height="3.58" fill="#b07f2c"/>
<rect x="80.68" y="58.32" width="3.58" height="3.58" fill="#b07f2c"/>
<rect x="84.12" y="58.32" width="3.58" height="3.58" fill="#b07f2c"/>
<rect x="87.56" y="58.32" width="3.58" height="3.58" fill="#b07f2c"/>
<rect x="60.04" y="61.76" width="3.58" height="3.58" fill="#e7b53f"/>
<rect x="63.48" y="61.76" width="3.58" height="3.58" fill="#e7b53f"/>
<rect x="66.92" y="61.76" width="3.58" height="3.58" fill="#e7b53f"/>
<rect x="73.8" y="61.76" width="3.58" height="3.58" fill="#b07f2c"/>
<rect x="77.24" y="61.76" width="3.58" height="3.58" fill="#b07f2c"/>
<rect x="80.68" y="61.76" width="3.58" height="3.58" fill="#b07f2c"/>
<rect x="84.12" y="61.76" width="3.58" height="3.58" fill="#b07f2c"/>
<rect x="60.04" y="65.2" width="3.58" height="3.58" fill="#b07f2c"/>
<rect x="63.48" y="65.2" width="3.58" height="3.58" fill="#e7b53f"/>
<rect x="66.92" y="65.2" width="3.58" height="3.58" fill="#e7b53f"/>
<rect x="70.36" y="65.2" width="3.58" height="3.58" fill="#e7b53f"/>
<rect x="60.04" y="68.64" width="3.58" height="3.58" fill="#b07f2c"/>
<rect x="66.92" y="68.64" width="3.58" height="3.58" fill="#e7b53f"/>
<rect x="70.36" y="68.64" width="3.58" height="3.58" fill="#e7b53f"/>
<rect x="73.8" y="68.64" width="3.58" height="3.58" fill="#e7b53f"/>
<rect x="60.04" y="72.08" width="3.58" height="3.58" fill="#b07f2c"/>
<rect x="63.48" y="72.08" width="3.58" height="3.58" fill="#b07f2c"/>
<rect x="70.36" y="72.08" width="3.58" height="3.58" fill="#e7b53f"/>
<rect x="73.8" y="72.08" width="3.58" height="3.58" fill="#e7b53f"/>
<rect x="60.04" y="75.52" width="3.58" height="3.58" fill="#b07f2c"/>
<rect x="63.48" y="75.52" width="3.58" height="3.58" fill="#b07f2c"/>
<rect x="60.04" y="78.96" width="3.58" height="3.58" fill="#b07f2c"/>
<rect x="63.48" y="78.96" width="3.58" height="3.58" fill="#b07f2c"/>
<rect x="60.04" y="82.4" width="3.58" height="3.58" fill="#b07f2c"/>
<rect x="63.48" y="82.4" width="3.58" height="3.58" fill="#b07f2c"/>
<rect x="60.04" y="85.84" width="3.58" height="3.58" fill="#b07f2c"/>
</g>
</svg>
