<svg xmlns="http://www.w3.org/2000/svg" viewBox="0 0 1200 630" width="1200" height="630" role="img" aria-label="CUPIDS Lab">
<metadata>CUPIDS Lab — generated from _data/brand.yml. A dark, data-forward identity for a public-interest data lab: a near-black canvas, CU gold accents, an IBM Plex Mono wordmark, and a recurring Cupid motif — a heart pierced by a gold arrow — drawn in the Unicode "color heart" palette. Restrained and civic, with a little matchmaker playfulness.</metadata>
<rect width="1200" height="630" fill="#0e0f12"/>
<rect x="0" y="0" width="1200" height="10" fill="#cfb87c"/>
<text x="80" y="189.0" font-family="IBM Plex Mono, ui-monospace, monospace" font-size="26" letter-spacing="0.16em" fill="#6fcf97">UNIVERSITY OF COLORADO · PUBLIC INTEREST DATA SCIENCE</text>
<text x="80" y="285.0" font-family="IBM Plex Mono, ui-monospace, monospace" font-weight="600" font-size="92" text-anchor="start" letter-spacing="0.01em">
  <tspan fill="#e8e6e0">cupids</tspan><tspan fill="#6fcf97">-</tspan><tspan fill="#e8e6e0">lab</tspan><tspan fill="#b23a2e">&lt;3</tspan>
</text>
<text x="80" y="365.0" font-family="Public Sans, system-ui, sans-serif" font-weight="800" font-size="60" fill="#e8e6e0">We preserve the data democracy depends on.</text>
<g transform="translate(1000 264.59999999999997) scale(4.4444) translate(-50 -46)">
  <path d="M50 82 C 22 62 10 45 10 30 C 10 18 19 10 30 10 C 39 10 47 16 50 24 C 53 16 61 10 70 10 C 81 10 90 18 90 30 C 90 45 78 62 50 82 Z" fill="#b23a2e"/>
  <g fill="none" stroke="#cfb87c" stroke-width="7" stroke-linecap="round" stroke-linejoin="round">
    <line x1="6" y1="74" x2="94" y2="26"/>
    <polyline points="80,22 94,26 90,40"/>
    <polyline points="2,60 6,74 20,70"/>
  </g>
</g>
<g transform="translate(312.0 560) scale(0.5556) translate(-50 -46)">
  <path d="M50 82 C 22 62 10 45 10 30 C 10 18 19 10 30 10 C 39 10 47 16 50 24 C 53 16 61 10 70 10 C 81 10 90 18 90 30 C 90 45 78 62 50 82 Z" fill="#ed4e5b"/>
  <g fill="none" stroke="#cfb87c" stroke-width="7" stroke-linecap="round" stroke-linejoin="round">
    <line x1="6" y1="74" x2="94" y2="26"/>
    <polyline points="80,22 94,26 90,40"/>
    <polyline points="2,60 6,74 20,70"/>
  </g>
</g>

<g transform="translate(384.0 560) scale(0.5556) translate(-50 -46)">
  <path d="M50 82 C 22 62 10 45 10 30 C 10 18 19 10 30 10 C 39 10 47 16 50 24 C 53 16 61 10 70 10 C 81 10 90 18 90 30 C 90 45 78 62 50 82 Z" fill="#f0883e"/>
  <g fill="none" stroke="#cfb87c" stroke-width="7" stroke-linecap="round" stroke-linejoin="round">
    <line x1="6" y1="74" x2="94" y2="26"/>
    <polyline points="80,22 94,26 90,40"/>
    <polyline points="2,60 6,74 20,70"/>
  </g>
</g>

<g transform="translate(456.0 560) scale(0.5556) translate(-50 -46)">
  <path d="M50 82 C 22 62 10 45 10 30 C 10 18 19 10 30 10 C 39 10 47 16 50 24 C 53 16 61 10 70 10 C 81 10 90 18 90 30 C 90 45 78 62 50 82 Z" fill="#f7c948"/>
  <g fill="none" stroke="#cfb87c" stroke-width="7" stroke-linecap="round" stroke-linejoin="round">
    <line x1="6" y1="74" x2="94" y2="26"/>
    <polyline points="80,22 94,26 90,40"/>
    <polyline points="2,60 6,74 20,70"/>
  </g>
</g>

<g transform="translate(528.0 560) scale(0.5556) translate(-50 -46)">
  <path d="M50 82 C 22 62 10 45 10 30 C 10 18 19 10 30 10 C 39 10 47 16 50 24 C 53 16 61 10 70 10 C 81 10 90 18 90 30 C 90 45 78 62 50 82 Z" fill="#6fcf97"/>
  <g fill="none" stroke="#cfb87c" stroke-width="7" stroke-linecap="round" stroke-linejoin="round">
    <line x1="6" y1="74" x2="94" y2="26"/>
    <polyline points="80,22 94,26 90,40"/>
    <polyline points="2,60 6,74 20,70"/>
  </g>
</g>

<g transform="translate(600.0 560) scale(0.5556) translate(-50 -46)">
  <path d="M50 82 C 22 62 10 45 10 30 C 10 18 19 10 30 10 C 39 10 47 16 50 24 C 53 16 61 10 70 10 C 81 10 90 18 90 30 C 90 45 78 62 50 82 Z" fill="#4a9fe6"/>
  <g fill="none" stroke="#cfb87c" stroke-width="7" stroke-linecap="round" stroke-linejoin="round">
    <line x1="6" y1="74" x2="94" y2="26"/>
    <polyline points="80,22 94,26 90,40"/>
    <polyline points="2,60 6,74 20,70"/>
  </g>
</g>

<g transform="translate(672.0 560) scale(0.5556) translate(-50 -46)">
  <path d="M50 82 C 22 62 10 45 10 30 C 10 18 19 10 30 10 C 39 10 47 16 50 24 C 53 16 61 10 70 10 C 81 10 90 18 90 30 C 90 45 78 62 50 82 Z" fill="#9b6dd6"/>
  <g fill="none" stroke="#cfb87c" stroke-width="7" stroke-linecap="round" stroke-linejoin="round">
    <line x1="6" y1="74" x2="94" y2="26"/>
    <polyline points="80,22 94,26 90,40"/>
    <polyline points="2,60 6,74 20,70"/>
  </g>
</g>

<g transform="translate(744.0 560) scale(0.5556) translate(-50 -46)">
  <path d="M50 82 C 22 62 10 45 10 30 C 10 18 19 10 30 10 C 39 10 47 16 50 24 C 53 16 61 10 70 10 C 81 10 90 18 90 30 C 90 45 78 62 50 82 Z" fill="#9c6b4a"/>
  <g fill="none" stroke="#cfb87c" stroke-width="7" stroke-linecap="round" stroke-linejoin="round">
    <line x1="6" y1="74" x2="94" y2="26"/>
    <polyline points="80,22 94,26 90,40"/>
    <polyline points="2,60 6,74 20,70"/>
  </g>
</g>

<g transform="translate(816.0 560) scale(0.5556) translate(-50 -46)">
  <path d="M50 82 C 22 62 10 45 10 30 C 10 18 19 10 30 10 C 39 10 47 16 50 24 C 53 16 61 10 70 10 C 81 10 90 18 90 30 C 90 45 78 62 50 82 Z" fill="#e8e6e0"/>
  <g fill="none" stroke="#cfb87c" stroke-width="7" stroke-linecap="round" stroke-linejoin="round">
    <line x1="6" y1="74" x2="94" y2="26"/>
    <polyline points="80,22 94,26 90,40"/>
    <polyline points="2,60 6,74 20,70"/>
  </g>
</g>

<g transform="translate(888.0 560) scale(0.5556) translate(-50 -46)">
  <path d="M50 82 C 22 62 10 45 10 30 C 10 18 19 10 30 10 C 39 10 47 16 50 24 C 53 16 61 10 70 10 C 81 10 90 18 90 30 C 90 45 78 62 50 82 Z" fill="#f06fa0"/>
  <g fill="none" stroke="#cfb87c" stroke-width="7" stroke-linecap="round" stroke-linejoin="round">
    <line x1="6" y1="74" x2="94" y2="26"/>
    <polyline points="80,22 94,26 90,40"/>
    <polyline points="2,60 6,74 20,70"/>
  </g>
</g>

</svg>
