<svg xmlns="http://www.w3.org/2000/svg" viewBox="0 0 32 32" width="32" height="32" role="img" aria-label="CUPIDS Lab">
<metadata>CUPIDS Lab — generated from _data/brand.yml. A brand and graphic identity for an academic public interest data lab. A black terminal with monospace fonts and syntax initially feels intimidating and cold. A near-black canvas, CU gold accents, an IBM Plex Mono "cupids-lab" wordmark. The central conceit is a "folder with arrow" — the data the public interest depends on, stored in file folders and pierced open by CUPID's golden arrow (matchmaking data and democracy). A palette of color folders provides variation in the decorative art. Restrained and civic, with a little matchmaker playfulness.</metadata>
<defs><linearGradient id="fb" x1="7.08807" y1="6.68747" x2="9.90057" y2="16.8125" gradientUnits="userSpaceOnUse"><stop stop-color="#f1757f"/><stop offset="1" stop-color="#ed4e5b"/></linearGradient><linearGradient id="ff" x1="17.0434" y1="12.8481" x2="17.0434" y2="29.8838" gradientUnits="userSpaceOnUse"><stop stop-color="#f1757f"/><stop offset="1" stop-color="#d14550"/></linearGradient></defs><path fill="url(#fb)" d="M2.81964 7.79683C2.81964 6.80271 3.62553 5.99683 4.61964 5.99683H12.4297C12.9467 5.99683 13.4435 6.197 13.8161 6.55536L16.6732 9.30336C17.0924 9.70651 17.6514 9.9317 18.233 9.9317H25.9713C26.9654 9.9317 27.7713 10.7376 27.7713 11.7317V19.9078L24.2068 29.8838H6.81964C4.6105 29.8838 2.81964 28.0929 2.81964 25.8838V7.79683Z"/><path fill="#df4956" d="M8.00856 15.5628C8.52664 14.1561 9.88739 13.2188 11.4116 13.2188H25.6241C26.7862 13.2188 26.5159 14.3229 26.1655 15.4102L24.4835 27.102C24.2456 27.8403 23.5476 28.3422 22.7584 28.3422L6.6694 28.3422L6.6593 28.3422C5.93643 28.3402 5.26343 28.1303 4.69914 27.7701L4.69511 27.7676C4.50932 27.5576 3.98357 26.5591 4.25478 25.8653L8.00856 15.5628Z"/><path fill="url(#ff)" d="M8.29999 15.4886C8.87268 13.904 10.3769 12.8481 12.0618 12.8481L28.8637 12.8482C30.1483 12.8482 31.0626 14.0963 30.6753 15.321L26.5118 28.4868C26.2488 29.3185 25.4772 29.8838 24.6049 29.8838L6.81964 29.8838L6.80847 29.8838C6.0094 29.8816 5.26544 29.6451 4.64166 29.2394L4.63721 29.2366C4.26239 28.9921 3.93115 28.6865 3.65753 28.3339C3.53326 28.1737 3.4209 28.0038 3.32172 27.8255C3.69391 27.798 3.8877 27.6138 3.98157 27.4372L8.29999 15.4886Z"/>
</svg>
